# Blender v2.78 (sub 0) OBJ File: 'bug.blend'
# www.blender.org
v -0.016254 0.032167 -0.000741
v -0.016254 0.053831 0.020817
v -0.016254 0.074626 0.049197
v -0.016699 0.079244 0.081919
v -0.022262 0.062416 0.108155
v -0.016254 0.016378 0.245254
v -0.016254 -0.009238 0.163593
v -0.016254 -0.021711 0.097016
v -0.016254 -0.010598 0.065347
v -0.018432 0.061555 0.130297
v -0.031984 0.052733 0.088275
v -0.030364 0.038875 0.116322
v -0.028780 0.023262 0.182966
v -0.028780 0.013124 0.165248
v -0.028780 0.001181 0.097028
v -0.028780 0.007623 0.078668
v -0.028780 0.015056 0.058980
v -0.028780 0.032416 0.040354
v -0.032997 0.018510 0.078405
v -0.035592 0.022882 0.085344
v -0.034926 0.021760 0.099760
v -0.035260 0.025439 0.125569
v -0.034770 0.021528 0.133281
v -0.039046 0.019441 0.097037
v -0.039046 0.022158 0.089293
v -0.039046 0.026100 0.071724
v -0.039046 0.025804 0.060422
v 0.014916 0.032167 -0.000741
v 0.015901 0.073825 0.049197
v 0.018612 0.078138 0.081919
v 0.017046 0.061627 0.130297
v 0.015285 0.057807 0.166881
v 0.014916 0.059187 0.213713
v 0.014916 0.041079 0.242840
v 0.014916 -0.001111 0.214691
v 0.014538 -0.009255 0.163593
v 0.010577 -0.021635 0.097016
v 0.014397 -0.010616 0.065347
v 0.027442 0.032416 0.040354
v 0.030059 0.054187 0.088275
v 0.030387 0.040394 0.103485
v 0.027442 0.037583 0.181567
v 0.024760 0.007044 0.135625
v 0.023640 -0.000287 0.097028
v 0.027442 0.016970 0.037009
v 0.035376 0.030433 0.078405
v 0.035728 0.029456 0.093345
v 0.034477 0.027461 0.125569
v 0.034421 0.026635 0.132691
v 0.033023 0.018118 0.125809
v 0.030424 0.013468 0.113315
v 0.032362 0.013633 0.097037
v 0.035664 0.023096 0.071724
v 0.033164 0.022817 0.114119
v -0.097196 -0.015197 0.070631
v -0.096282 -0.015860 0.148449
v -0.132256 -0.036004 0.070631
v -0.130888 -0.038309 0.148449
v -0.174233 -0.060918 0.094441
v -0.173608 -0.061972 0.104224
v -0.172865 -0.063223 0.120387
v -0.033678 0.019656 0.099760
v -0.033052 0.018603 0.105174
v -0.032555 0.018049 0.114119
v -0.095947 -0.017300 0.070631
v -0.095322 -0.018354 0.099972
v -0.095003 -0.018196 0.148449
v -0.131008 -0.038108 0.070631
v -0.130382 -0.039162 0.099972
v -0.129640 -0.040413 0.148449
v -0.172985 -0.063021 0.094441
v -0.172359 -0.064075 0.104224
v -0.171617 -0.065326 0.120387
v 0.014916 0.013716 -0.029653
v 0.014916 0.053831 0.020817
v 0.020895 0.062608 0.108155
v 0.014916 0.016378 0.245254
v 0.014916 0.002223 0.031387
v 0.014916 0.005525 -0.006511
v 0.027442 0.021719 0.023592
v 0.027373 0.043943 0.052852
v 0.028279 0.054290 0.069305
v 0.028982 0.039210 0.116322
v 0.027543 0.042751 0.137531
v 0.027500 0.046518 0.164681
v 0.027442 0.023262 0.182966
v 0.026522 0.012554 0.165248
v 0.025333 0.006581 0.078668
v 0.026513 0.014431 0.058980
v 0.036318 0.025836 0.066065
v 0.035831 0.032066 0.085344
v 0.033838 0.022966 0.099760
v 0.032963 0.020706 0.105174
v 0.033928 0.022366 0.133281
v 0.033646 0.017200 0.089293
v 0.034807 0.021196 0.080990
v 0.036361 0.023853 0.060422
v 0.035271 0.027419 0.073134
v -0.000187 0.011106 -0.047897
v -0.000669 0.056865 0.009841
v -0.000430 0.080589 0.042307
v 0.001423 0.086652 0.079741
v -0.000511 0.071510 0.109755
v -0.000669 0.062007 0.176937
v -0.000669 0.062993 0.230513
v -0.000669 0.042277 0.263833
v -0.000669 0.014019 0.266595
v -0.000669 -0.005988 0.231632
v -0.000669 -0.015286 0.173176
v -0.000951 -0.029477 0.097013
v -0.000669 -0.016841 0.060783
v -0.000669 -0.002174 0.021933
v -0.000669 0.001603 -0.021422
v -0.000669 0.032082 -0.014822
v -0.000691 0.068032 0.135086
v -0.015732 0.013565 -0.029653
v -0.016773 0.057596 0.166881
v -0.016254 0.059187 0.213713
v -0.016254 0.041079 0.242840
v -0.016254 -0.001111 0.214691
v -0.016254 0.002223 0.031387
v -0.016254 0.005525 -0.006511
v -0.028780 0.021719 0.023592
v -0.028780 0.044975 0.052852
v -0.028780 0.057031 0.069305
v -0.032007 0.039095 0.103485
v -0.028845 0.046311 0.164681
v -0.028780 0.037583 0.181567
v -0.028780 0.008412 0.135625
v -0.028780 0.016970 0.037009
v -0.028899 0.041879 0.137531
v -0.039046 0.028103 0.066065
v -0.036375 0.024202 0.093345
v -0.034301 0.020706 0.105174
v -0.035094 0.024984 0.132691
v -0.034221 0.017928 0.125809
v -0.032439 0.014307 0.113315
v -0.039046 0.025293 0.080990
v -0.039046 0.032615 0.073134
v -0.034219 0.021809 0.114119
v 0.095858 -0.015197 0.070631
v 0.094490 -0.017502 0.148449
v 0.130918 -0.036004 0.070631
v 0.129550 -0.038309 0.148449
v 0.172895 -0.060918 0.094441
v 0.172270 -0.061972 0.104224
v 0.171527 -0.063223 0.120387
v 0.032340 0.019656 0.099760
v 0.031714 0.018603 0.105174
v 0.031470 0.018773 0.114119
v 0.094609 -0.017300 0.070631
v 0.093984 -0.018354 0.099972
v 0.093241 -0.019605 0.148449
v 0.129670 -0.038108 0.070631
v 0.129044 -0.039162 0.099972
v 0.128302 -0.040413 0.148449
v 0.171647 -0.063021 0.094441
v 0.171021 -0.064075 0.104224
v 0.170279 -0.065326 0.120387
vn -0.0015 0.9512 0.3085
vn -0.6056 0.7861 0.1238
vn -0.7328 0.6384 0.2354
vn 0.0055 0.9112 -0.4119
vn -0.7404 0.5122 -0.4353
vn -0.6806 0.6811 -0.2698
vn 0.0114 -0.9431 -0.3323
vn -0.6714 -0.7388 -0.0579
vn -0.6775 -0.6911 -0.2517
vn 0.0426 0.9915 0.1233
vn 0.0529 -0.9956 -0.0769
vn -0.6861 -0.7168 0.1244
vn -0.8811 -0.4722 -0.0261
vn -0.8629 -0.4748 -0.1729
vn -0.9847 -0.1698 0.0382
vn -0.9915 -0.1230 -0.0428
vn 0.6966 -0.7157 -0.0507
vn 0.0037 -0.9862 0.1655
vn 0.7465 -0.6361 0.1953
vn 0.0000 -0.9180 0.3965
vn 0.6644 0.7332 0.1450
vn -0.0037 0.9996 0.0286
vn 0.0000 0.9275 0.3739
vn 0.7053 0.6493 -0.2846
vn 0.6974 -0.7089 0.1051
vn 0.8535 0.3252 0.4072
vn 0.0000 0.4539 0.8910
vn 0.8506 -0.5235 0.0501
vn 0.8548 -0.5188 -0.0101
vn 0.9073 -0.4181 0.0434
vn -0.6629 0.7402 0.1119
vn -0.0028 0.9912 0.1320
vn -0.0005 0.7481 -0.6635
vn -0.7344 0.5246 -0.4306
vn 0.5301 0.8473 0.0315
vn -0.5008 0.4438 0.7431
vn 0.4825 -0.4780 0.7339
vn -0.2021 0.6475 0.7348
vn -0.2241 0.6526 -0.7238
vn 0.1825 -0.6426 -0.7441
vn -0.4898 0.4913 -0.7202
vn -0.9687 0.2420 0.0541
vn -0.2965 -0.8382 -0.4577
vn -0.2484 -0.9657 -0.0750
vn -0.8949 0.1336 0.4258
vn 0.1790 -0.6674 0.7229
vn -0.8975 0.2263 -0.3786
vn 0.8914 -0.2329 0.3888
vn 0.5155 -0.8564 -0.0295
vn 0.9594 -0.2586 -0.1127
vn 0.8530 -0.1155 -0.5089
vn 0.4564 -0.4879 -0.7440
vn 0.5080 -0.8603 -0.0416
vn -0.2646 -0.8900 0.3712
vn -0.9720 0.2202 -0.0820
vn 0.6533 -0.7422 -0.1493
vn 0.0000 -0.9834 -0.1814
vn -0.0028 -0.9643 -0.2648
vn 0.9470 -0.3173 -0.0502
vn 0.8582 -0.4979 -0.1246
vn 0.8046 -0.5855 -0.0992
vn -0.6593 -0.7358 -0.1545
vn -0.6644 0.7332 0.1444
vn -0.8535 0.3252 0.4072
vn -0.9760 0.1513 0.1562
vn -0.5379 0.8425 0.0284
vn -0.8733 0.4871 0.0081
vn 0.8362 -0.0421 -0.5467
vn -0.8302 -0.0470 -0.5554
vn -0.9718 0.0002 -0.2357
vn -0.8128 -0.5719 -0.1101
vn 0.1914 0.6400 0.7441
vn -0.1719 -0.6692 0.7229
vn 0.4943 0.4517 0.7427
vn 0.4898 0.4913 -0.7202
vn -0.4564 -0.4879 -0.7440
vn 0.2238 0.6571 -0.7198
vn 0.9687 0.2420 0.0541
vn 0.2965 -0.8382 -0.4577
vn 0.8975 0.2263 -0.3786
vn 0.8949 0.1336 0.4258
vn 0.2484 -0.9657 -0.0750
vn 0.2646 -0.8900 0.3712
vn -0.8874 -0.2186 0.4059
vn -0.5149 -0.8564 -0.0375
vn -0.4867 -0.4931 0.7210
vn -0.8505 -0.1562 -0.5022
vn -0.9566 -0.2778 -0.0878
vn -0.5080 -0.8603 -0.0416
vn -0.1825 -0.6426 -0.7441
vn 0.9560 0.2827 0.0786
vn 0.7624 0.6344 0.1277
vn -0.6299 -0.7592 -0.1639
vn -0.9449 0.3226 0.0565
vn -0.9587 0.2266 0.1720
vn -0.7458 -0.6362 0.1975
vn -0.8644 -0.2874 0.4125
vn 0.0000 -0.3929 0.9196
vn 0.0571 0.9973 0.0465
vn -0.9531 0.2924 0.0782
vn -0.9309 0.3057 -0.1998
vn -0.9356 0.3292 -0.1277
vn -0.9275 -0.3580 0.1071
vn -0.8862 -0.4574 0.0732
vn -0.9793 -0.1217 0.1614
vn -0.8204 -0.5596 -0.1175
vn -0.9719 -0.1895 -0.1398
vn -0.9887 -0.1423 0.0474
vn -0.5346 0.7799 -0.3254
vn -0.8539 -0.5120 0.0932
vn -0.9782 -0.1893 0.0851
vn -0.8900 -0.4487 0.0811
vn -0.9966 0.0587 0.0572
vn -0.9391 -0.3427 -0.0244
vn -0.3432 0.9368 0.0682
vn -0.8917 0.4521 -0.0208
vn -0.9782 0.1770 -0.1086
vn 0.8131 -0.5721 -0.1072
vn 0.6315 -0.7589 -0.1588
vn 0.7299 0.6354 0.2520
vn 0.9321 0.3522 0.0849
vn 0.6673 0.7358 0.1149
vn 0.7419 0.5093 -0.4360
vn 0.8644 -0.2874 0.4125
vn 0.9466 0.2513 0.2018
vn 0.9504 0.3030 0.0698
vn 0.9363 0.2681 -0.2266
vn 0.6881 -0.6949 -0.2087
vn 0.7315 0.5316 -0.4270
vn 0.9734 0.0015 -0.2291
vn 0.9132 -0.3963 0.0942
vn 0.9783 -0.1367 0.1558
vn 0.6581 0.7446 0.1115
vn 0.9332 0.3244 -0.1544
vn 0.9151 0.3244 -0.2394
vn 0.9756 0.1507 0.1599
vn 0.9937 0.1106 -0.0192
vn 0.9731 -0.2159 0.0797
vn 0.9962 0.0599 0.0623
vn 0.8676 0.4968 0.0195
vn -0.9810 -0.0873 -0.1730
vn 0.9856 0.0400 0.1643
vn 0.9386 -0.3434 0.0323
vn 0.9907 0.1016 -0.0902
vn 0.9204 -0.3900 0.0254
vn 0.9288 -0.3706 0.0035
vn -0.0039 0.8023 -0.5969
vn -0.8927 0.3546 -0.2781
vn -0.5213 0.5398 0.6609
vn -0.7911 0.5984 0.1266
vn -0.9714 0.2229 -0.0818
vn 0.0098 -0.1175 -0.9930
vn 0.8738 0.4856 -0.0262
vn 0.9859 0.1652 -0.0266
vn 0.9186 0.3886 0.0710
vn 0.9445 0.3283 -0.0137
vn 0.9544 0.2532 -0.1582
vn 0.9837 -0.0996 -0.1495
vn 0.9294 -0.3680 -0.0272
s 1
f 103//1 4//2 5//3
f 101//4 2//5 3//6
f 111//7 8//8 9//9
f 102//10 3//6 4//2
f 110//11 7//12 8//8
f 9//9 15//13 16//14
f 16//14 24//15 25//16
f 111//7 37//17 110//11
f 109//18 35//19 108//20
f 33//21 104//22 105//23
f 102//10 29//24 101//4
f 110//11 36//25 109//18
f 34//26 105//23 106//27
f 37//17 43//28 36//25
f 44//29 51//30 43//28
f 103//1 10//31 115//32
f 100//33 1//34 2//5
f 32//35 115//32 104//22
f 58//36 67//37 56//38
f 55//39 68//40 57//41
f 60//42 71//43 72//44
f 72//44 61//45 60//42
f 61//45 70//46 58//36
f 59//47 68//40 71//43
f 64//48 66//49 63//50
f 62//51 66//49 65//52
f 70//46 66//49 67//37
f 65//52 69//53 68//40
f 73//54 69//53 70//46
f 69//53 71//43 68//40
f 21//55 65//52 55//39
f 60//42 58//36 57//41
f 55//39 58//36 56//38
f 79//56 112//57 113//58
f 96//59 88//60 89//61
f 112//57 122//62 113//58
f 104//22 118//63 105//23
f 105//23 119//64 106//27
f 118//63 128//65 119//64
f 117//66 127//67 118//63
f 113//58 74//68 79//56
f 116//69 113//58 122//62
f 123//70 122//62 130//71
f 142//72 156//73 144//74
f 143//75 151//76 141//77
f 146//78 157//79 145//80
f 147//81 158//82 146//78
f 147//81 156//73 159//83
f 157//79 143//75 145//80
f 150//84 152//85 153//86
f 148//87 152//85 149//88
f 152//85 156//73 153//86
f 151//76 155//89 152//85
f 155//89 159//83 156//73
f 157//79 155//89 154//90
f 141//77 148//87 92//91
f 148//87 93//92 92//91
f 144//74 147//81 146//78
f 144//74 141//77 142//72
f 121//93 130//71 122//62
f 5//3 11//94 126//95
f 109//18 120//96 7//12
f 106//27 6//97 107//98
f 111//7 121//93 112//57
f 108//20 6//97 120//96
f 126//95 134//99 12//100
f 3//6 124//101 125//102
f 7//12 14//103 129//104
f 119//64 13//105 6//97
f 4//2 125//102 11//94
f 9//9 17//106 121//93
f 8//8 129//104 15//13
f 120//96 13//105 14//103
f 11//94 20//107 133//108
f 16//14 138//109 17//106
f 15//13 137//110 24//15
f 14//103 23//111 136//112
f 127//67 135//113 128//65
f 126//95 133//108 21//55
f 17//106 26//114 130//71
f 125//102 19//115 20//107
f 129//104 136//112 137//110
f 13//105 135//113 23//111
f 131//116 22//117 127//67
f 45//118 78//119 79//56
f 76//120 40//121 30//122
f 103//1 30//122 102//10
f 101//4 75//123 100//33
f 77//124 106//27 107//98
f 78//119 111//7 112//57
f 108//20 77//124 107//98
f 93//92 41//125 83//126
f 29//24 81//127 75//123
f 38//128 44//29 37//17
f 28//129 80//130 74//68
f 36//25 87//131 35//19
f 86//132 34//26 77//124
f 83//126 76//120 31//133
f 30//122 82//134 29//24
f 89//61 38//128 78//119
f 75//123 39//135 28//129
f 35//19 86//132 77//124
f 42//136 33//21 34//26
f 40//121 91//137 82//134
f 87//131 94//138 86//132
f 49//139 85//140 42//136
f 27//141 130//71 26//114
f 41//125 47//142 40//121
f 53//143 89//61 45//118
f 82//134 46//144 81//127
f 88//60 52//145 44//29
f 43//28 50//146 87//131
f 94//138 42//136 86//132
f 114//147 116//69 1//34
f 115//32 117//66 104//22
f 1//34 123//70 18//148
f 5//3 12//100 10//31
f 2//5 18//148 124//101
f 10//31 131//116 117//66
f 138//109 134//99 19//115
f 124//101 139//149 19//115
f 12//100 140//150 131//116
f 18//148 132//151 139//149
f 114//147 74//68 99//152
f 31//133 103//1 115//32
f 100//33 28//129 114//147
f 85//140 32//35 33//21
f 84//153 31//133 32//35
f 93//92 51//30 52//145
f 81//127 98//154 39//135
f 54//155 83//126 84//153
f 39//135 90//156 80//130
f 48//157 84//153 85//140
f 79//56 80//130 45//118
f 97//158 45//118 80//130
f 56//38 64//48 140//150
f 64//48 134//99 140//150
f 134//99 62//51 21//55
f 56//38 140//150 134//99
f 142//72 150//84 153//86
f 93//92 150//84 54//155
f 93//92 142//72 141//77
f 103//1 102//10 4//2
f 101//4 100//33 2//5
f 111//7 110//11 8//8
f 102//10 101//4 3//6
f 110//11 109//18 7//12
f 9//9 8//8 15//13
f 16//14 15//13 24//15
f 111//7 38//128 37//17
f 109//18 36//25 35//19
f 33//21 32//35 104//22
f 102//10 30//122 29//24
f 110//11 37//17 36//25
f 34//26 33//21 105//23
f 37//17 44//29 43//28
f 44//29 52//145 51//30
f 103//1 5//3 10//31
f 100//33 114//147 1//34
f 32//35 31//133 115//32
f 58//36 70//46 67//37
f 55//39 65//52 68//40
f 60//42 59//47 71//43
f 72//44 73//54 61//45
f 61//45 73//54 70//46
f 59//47 57//41 68//40
f 64//48 67//37 66//49
f 62//51 63//50 66//49
f 70//46 69//53 66//49
f 65//52 66//49 69//53
f 73//54 72//44 69//53
f 69//53 72//44 71//43
f 21//55 62//51 65//52
f 57//41 59//47 60//42
f 60//42 61//45 58//36
f 55//39 57//41 58//36
f 79//56 78//119 112//57
f 96//59 95//159 88//60
f 112//57 121//93 122//62
f 104//22 117//66 118//63
f 105//23 118//63 119//64
f 118//63 127//67 128//65
f 117//66 131//116 127//67
f 113//58 99//152 74//68
f 116//69 99//152 113//58
f 123//70 116//69 122//62
f 142//72 153//86 156//73
f 143//75 154//90 151//76
f 146//78 158//82 157//79
f 147//81 159//83 158//82
f 147//81 144//74 156//73
f 157//79 154//90 143//75
f 150//84 149//88 152//85
f 148//87 151//76 152//85
f 152//85 155//89 156//73
f 151//76 154//90 155//89
f 155//89 158//82 159//83
f 157//79 158//82 155//89
f 141//77 151//76 148//87
f 148//87 149//88 93//92
f 146//78 145//80 143//75
f 143//75 144//74 146//78
f 144//74 143//75 141//77
f 121//93 17//106 130//71
f 5//3 4//2 11//94
f 109//18 108//20 120//96
f 106//27 119//64 6//97
f 111//7 9//9 121//93
f 108//20 107//98 6//97
f 126//95 21//55 134//99
f 3//6 2//5 124//101
f 7//12 120//96 14//103
f 119//64 128//65 13//105
f 4//2 3//6 125//102
f 9//9 16//14 17//106
f 8//8 7//12 129//104
f 120//96 6//97 13//105
f 11//94 125//102 20//107
f 16//14 25//16 138//109
f 15//13 129//104 137//110
f 14//103 13//105 23//111
f 127//67 22//117 135//113
f 126//95 11//94 133//108
f 17//106 138//109 26//114
f 125//102 124//101 19//115
f 129//104 14//103 136//112
f 13//105 128//65 135//113
f 131//116 140//150 22//117
f 45//118 89//61 78//119
f 76//120 41//125 40//121
f 103//1 76//120 30//122
f 101//4 29//24 75//123
f 77//124 34//26 106//27
f 78//119 38//128 111//7
f 108//20 35//19 77//124
f 93//92 92//91 41//125
f 29//24 82//134 81//127
f 38//128 88//60 44//29
f 28//129 39//135 80//130
f 36//25 43//28 87//131
f 86//132 42//136 34//26
f 83//126 41//125 76//120
f 30//122 40//121 82//134
f 89//61 88//60 38//128
f 75//123 81//127 39//135
f 35//19 87//131 86//132
f 42//136 85//140 33//21
f 40//121 47//142 91//137
f 87//131 50//146 94//138
f 49//139 48//157 85//140
f 27//141 132//151 123//70
f 123//70 130//71 27//141
f 41//125 92//91 47//142
f 53//143 96//59 89//61
f 82//134 91//137 46//144
f 88//60 95//159 52//145
f 43//28 51//30 50//146
f 94//138 49//139 42//136
f 114//147 99//152 116//69
f 115//32 10//31 117//66
f 1//34 116//69 123//70
f 5//3 126//95 12//100
f 2//5 1//34 18//148
f 10//31 12//100 131//116
f 132//151 27//141 26//114
f 138//109 25//16 23//111
f 132//151 26//114 138//109
f 19//115 139//149 132//151
f 133//108 20//107 21//55
f 21//55 20//107 19//115
f 19//115 132//151 138//109
f 25//16 24//15 23//111
f 137//110 136//112 24//15
f 23//111 135//113 22//117
f 23//111 22//117 140//150
f 134//99 21//55 19//115
f 23//111 140//150 134//99
f 24//15 136//112 23//111
f 23//111 134//99 138//109
f 124//101 18//148 139//149
f 12//100 134//99 140//150
f 18//148 123//70 132//151
f 114//147 28//129 74//68
f 31//133 76//120 103//1
f 100//33 75//123 28//129
f 85//140 84//153 32//35
f 84//153 83//126 31//133
f 97//158 90//156 53//143
f 98//154 46//144 96//59
f 91//137 47//142 96//59
f 46//144 91//137 96//59
f 53//143 90//156 98//154
f 52//145 92//91 93//92
f 96//59 53//143 98//154
f 47//142 95//159 96//59
f 54//155 48//157 50//146
f 47//142 92//91 95//159
f 93//92 54//155 51//30
f 49//139 94//138 48//157
f 50//146 51//30 54//155
f 95//159 92//91 52//145
f 48//157 94//138 50//146
f 81//127 46//144 98//154
f 54//155 93//92 83//126
f 39//135 98//154 90//156
f 48//157 54//155 84//153
f 79//56 74//68 80//130
f 97//158 53//143 45//118
f 80//130 90//156 97//158
f 56//38 67//37 64//48
f 64//48 63//50 134//99
f 134//99 63//50 62//51
f 134//99 21//55 55//39
f 55//39 56//38 134//99
f 142//72 54//155 150//84
f 93//92 149//88 150//84
f 141//77 92//91 93//92
f 93//92 54//155 142//72
