# Blender v2.78 (sub 0) OBJ File: 'bug.blend'
# www.blender.org
v -0.016254 0.032167 -0.000741
v -0.016254 0.053831 0.020817
v -0.016254 0.074626 0.049197
v -0.016627 0.078389 0.081919
v -0.023113 0.059754 0.108155
v -0.016254 0.016378 0.245254
v -0.016254 -0.009238 0.163593
v -0.016254 -0.021711 0.097016
v -0.016254 -0.010598 0.065347
v -0.018721 0.060568 0.130297
v -0.032085 0.050391 0.088275
v -0.029661 0.035593 0.116322
v -0.028780 0.023262 0.182966
v -0.028780 0.013124 0.165248
v -0.028780 0.001181 0.097028
v -0.028780 0.007623 0.078668
v -0.028780 0.015056 0.058980
v -0.028780 0.032416 0.040354
v -0.029662 0.014054 0.078405
v -0.032862 0.018006 0.085344
v -0.032041 0.016991 0.099760
v -0.033023 0.022228 0.125569
v -0.033005 0.020053 0.133281
v -0.039046 0.019441 0.097037
v -0.039046 0.022158 0.089293
v -0.039046 0.026100 0.071724
v -0.039046 0.025804 0.060422
v 0.014916 0.032167 -0.000741
v 0.016082 0.073528 0.049197
v 0.019311 0.077060 0.081919
v 0.017330 0.060668 0.130297
v 0.015333 0.057639 0.166881
v 0.014916 0.059187 0.213713
v 0.014916 0.041079 0.242840
v 0.014916 -0.001111 0.214691
v 0.014439 -0.009224 0.163593
v 0.009463 -0.021219 0.097016
v 0.014261 -0.010574 0.065347
v 0.027442 0.032416 0.040354
v 0.030142 0.052275 0.088275
v 0.029909 0.036629 0.103485
v 0.027442 0.037583 0.181567
v 0.023942 0.006936 0.135625
v 0.022525 -0.000318 0.097028
v 0.027442 0.016970 0.037009
v 0.034091 0.028716 0.078405
v 0.033838 0.025746 0.093345
v 0.032568 0.024720 0.125569
v 0.032827 0.024829 0.132691
v 0.031233 0.016904 0.125809
v 0.027719 0.011804 0.113315
v 0.030451 0.012622 0.097037
v 0.034861 0.022507 0.071724
v 0.030510 0.019052 0.114119
v -0.088314 -0.028578 0.070631
v -0.087349 -0.028637 0.148449
v -0.119998 -0.054235 0.070631
v -0.118312 -0.056318 0.148449
v -0.157934 -0.084955 0.094441
v -0.157162 -0.085907 0.104224
v -0.156247 -0.087038 0.120387
v -0.030501 0.015091 0.099760
v -0.029730 0.014138 0.105174
v -0.029186 0.013863 0.114119
v -0.086775 -0.030479 0.070631
v -0.086004 -0.031431 0.099972
v -0.085750 -0.030828 0.148449
v -0.118459 -0.056136 0.070631
v -0.117688 -0.057089 0.099972
v -0.116772 -0.058219 0.148449
v -0.156394 -0.086855 0.094441
v -0.155623 -0.087808 0.104224
v -0.154707 -0.088938 0.120387
v 0.014916 0.013716 -0.029653
v 0.014916 0.053831 0.020817
v 0.021765 0.060041 0.108155
v 0.014916 0.016378 0.245254
v 0.014916 0.002223 0.031387
v 0.014916 0.005525 -0.006511
v 0.027442 0.021719 0.023592
v 0.027261 0.043683 0.052852
v 0.028245 0.053506 0.069305
v 0.028299 0.036017 0.116322
v 0.027127 0.041495 0.137531
v 0.027372 0.046109 0.164681
v 0.027442 0.023262 0.182966
v 0.026232 0.012491 0.165248
v 0.024693 0.006505 0.078668
v 0.026216 0.014354 0.058980
v 0.035752 0.025378 0.066065
v 0.034348 0.029416 0.085344
v 0.031127 0.018487 0.099760
v 0.029931 0.016039 0.105174
v 0.032368 0.021063 0.133281
v 0.032144 0.016292 0.089293
v 0.033683 0.020404 0.080990
v 0.035835 0.023473 0.060422
v 0.034167 0.026301 0.073134
v -0.000075 0.011184 -0.047897
v -0.000669 0.056865 0.009841
v -0.000374 0.080550 0.042307
v 0.001910 0.085954 0.079741
v -0.000474 0.069714 0.109755
v -0.000669 0.062007 0.176937
v -0.000669 0.062993 0.230513
v -0.000669 0.042277 0.263833
v -0.000669 0.014019 0.266595
v -0.000669 -0.005988 0.231632
v -0.000669 -0.015286 0.173176
v -0.001017 -0.029431 0.097013
v -0.000669 -0.016841 0.060783
v -0.000669 -0.002174 0.021933
v -0.000669 0.001603 -0.021422
v -0.000669 0.032082 -0.014822
v -0.000696 0.067570 0.135086
v -0.015584 0.013574 -0.029653
v -0.016840 0.057360 0.166881
v -0.016254 0.059187 0.213713
v -0.016254 0.041079 0.242840
v -0.016254 -0.001111 0.214691
v -0.016254 0.002223 0.031387
v -0.016254 0.005525 -0.006511
v -0.028780 0.021719 0.023592
v -0.028780 0.044975 0.052852
v -0.028780 0.057031 0.069305
v -0.031484 0.034969 0.103485
v -0.028701 0.045849 0.164681
v -0.028780 0.037583 0.181567
v -0.028780 0.008412 0.135625
v -0.028780 0.016970 0.037009
v -0.028408 0.040396 0.137531
v -0.039046 0.028103 0.066065
v -0.033828 0.019198 0.093345
v -0.031269 0.016039 0.105174
v -0.033177 0.022813 0.132691
v -0.032377 0.016678 0.125809
v -0.029985 0.012798 0.113315
v -0.039046 0.025293 0.080990
v -0.039046 0.032615 0.073134
v -0.031400 0.017810 0.114119
v 0.086976 -0.028578 0.070631
v 0.085289 -0.030661 0.148449
v 0.118660 -0.054235 0.070631
v 0.116974 -0.056318 0.148449
v 0.156596 -0.084955 0.094441
v 0.155824 -0.085907 0.104224
v 0.154909 -0.087038 0.120387
v 0.029163 0.015091 0.099760
v 0.028392 0.014138 0.105174
v 0.028233 0.014750 0.114119
v 0.085437 -0.030479 0.070631
v 0.084666 -0.031431 0.099972
v 0.083750 -0.032562 0.148449
v 0.117121 -0.056136 0.070631
v 0.116350 -0.057089 0.099972
v 0.115434 -0.058219 0.148449
v 0.155056 -0.086855 0.094441
v 0.154285 -0.087808 0.104224
v 0.153369 -0.088938 0.120387
vn -0.0029 0.9538 0.3004
vn -0.6037 0.7832 0.1486
vn -0.7673 0.5989 0.2291
vn 0.0090 0.9145 -0.4044
vn -0.7401 0.5126 -0.4352
vn -0.6771 0.6878 -0.2618
vn 0.0165 -0.9448 -0.3272
vn -0.6712 -0.7390 -0.0579
vn -0.6775 -0.6911 -0.2517
vn 0.0517 0.9880 0.1453
vn 0.0810 -0.9935 -0.0797
vn -0.6861 -0.7168 0.1244
vn -0.8870 -0.4616 -0.0135
vn -0.8629 -0.4748 -0.1729
vn -0.8118 0.4884 0.3199
vn -0.6997 0.7144 0.0016
vn 0.7173 -0.6950 -0.0493
vn 0.0055 -0.9863 0.1649
vn 0.7467 -0.6361 0.1944
vn 0.0000 -0.9180 0.3965
vn 0.6646 0.7331 0.1439
vn -0.0050 0.9997 0.0230
vn 0.0000 0.9275 0.3739
vn 0.7105 0.6460 -0.2790
vn 0.7026 -0.7047 0.0981
vn 0.8535 0.3252 0.4072
vn 0.0000 0.4539 0.8910
vn 0.8536 -0.5198 0.0328
vn 0.8570 -0.5153 0.0036
vn 0.9021 -0.4300 0.0363
vn -0.6834 0.7251 0.0850
vn -0.0038 0.9949 0.1008
vn -0.0006 0.7483 -0.6633
vn -0.7351 0.5230 -0.4314
vn 0.5406 0.8410 0.0221
vn -0.5608 0.3647 0.7432
vn 0.5456 -0.4006 0.7360
vn -0.2952 0.6126 0.7331
vn -0.3160 0.6122 -0.7247
vn 0.2734 -0.6095 -0.7441
vn -0.5557 0.4153 -0.7202
vn -0.9936 0.0994 0.0541
vn -0.1723 -0.8722 -0.4577
vn -0.1061 -0.9915 -0.0750
vn -0.9048 0.0028 0.4258
vn 0.2751 -0.6338 0.7229
vn -0.9207 0.0942 -0.3786
vn 0.9146 -0.1149 0.3876
vn 0.6348 -0.7722 -0.0268
vn 0.9863 -0.1230 -0.1100
vn 0.8607 0.0090 -0.5089
vn 0.5222 -0.4168 -0.7440
vn -0.1332 -0.9189 0.3712
vn 0.6270 -0.7779 -0.0416
vn -0.1022 0.9900 -0.0975
vn 0.6533 -0.7422 -0.1493
vn 0.0000 -0.9834 -0.1814
vn -0.0042 -0.9639 -0.2663
vn 0.9493 -0.3132 -0.0281
vn 0.8618 -0.4967 -0.1025
vn 0.8043 -0.5875 -0.0893
vn -0.6612 -0.7336 -0.1566
vn -0.6648 0.7332 0.1432
vn -0.8535 0.3252 0.4072
vn -0.9784 0.1516 0.1408
vn -0.5506 0.8345 0.0180
vn -0.8850 0.4652 -0.0179
vn 0.8372 -0.0429 -0.5451
vn -0.8298 -0.0469 -0.5560
vn -0.9717 0.0001 -0.2361
vn -0.8128 -0.5719 -0.1101
vn 0.5545 0.3755 0.7427
vn -0.5536 -0.4176 0.7205
vn -0.2669 -0.6373 0.7229
vn 0.5557 0.4153 -0.7202
vn -0.5222 -0.4168 -0.7440
vn 0.3164 0.6178 -0.7198
vn 0.9936 0.0994 0.0541
vn 0.1723 -0.8722 -0.4577
vn 0.9207 0.0942 -0.3786
vn 0.9048 0.0028 0.4259
vn 0.1061 -0.9915 -0.0750
vn 0.1332 -0.9189 0.3712
vn -0.2734 -0.6095 -0.7441
vn -0.9084 -0.0974 0.4066
vn -0.6341 -0.7724 -0.0368
vn -0.8650 -0.0486 -0.4994
vn -0.9857 -0.1479 -0.0806
vn -0.6270 -0.7779 -0.0416
vn 0.9733 0.1956 0.1202
vn 0.8152 0.5638 0.1327
vn 0.2824 0.6053 0.7442
vn -0.6299 -0.7592 -0.1639
vn -0.9642 0.2596 0.0532
vn -0.9789 0.1236 0.1625
vn -0.7458 -0.6362 0.1975
vn -0.8644 -0.2874 0.4125
vn 0.0000 -0.3929 0.9196
vn 0.0452 0.9989 0.0120
vn -0.9774 0.1977 0.0743
vn -0.9326 0.3037 -0.1949
vn -0.9401 0.3251 -0.1023
vn -0.9383 -0.3324 0.0949
vn -0.9102 -0.4096 0.0612
vn -0.9817 -0.1170 0.1498
vn -0.8204 -0.5596 -0.1175
vn -0.3580 0.9175 -0.1731
vn -0.5451 0.8122 0.2077
vn -0.5930 0.4691 0.6544
vn -0.9613 -0.2635 0.0797
vn -0.9859 -0.1629 0.0374
vn -0.9634 -0.2632 -0.0508
vn -0.9972 0.0752 -0.0009
vn -0.9391 -0.3427 -0.0244
vn -0.9247 0.3787 -0.0369
vn -0.9783 0.1450 -0.1481
vn 0.8166 -0.5678 -0.1033
vn 0.6323 -0.7587 -0.1567
vn 0.7636 0.5948 0.2512
vn 0.9503 0.2978 0.0902
vn 0.6797 0.7215 0.1317
vn 0.7425 0.5094 -0.4350
vn 0.8644 -0.2874 0.4125
vn 0.9676 0.1560 0.1985
vn 0.9757 0.2097 0.0632
vn 0.9444 0.2544 -0.2083
vn 0.6923 -0.6954 -0.1925
vn 0.7315 0.5316 -0.4270
vn 0.9739 0.0018 -0.2270
vn 0.9173 -0.3901 0.0801
vn 0.9794 -0.1391 0.1460
vn 0.6771 0.7310 0.0845
vn 0.9451 0.2947 -0.1408
vn 0.9214 0.3163 -0.2256
vn 0.9771 0.1528 0.1482
vn 0.9969 0.0757 0.0224
vn 0.9714 -0.2325 0.0472
vn 0.9971 0.0761 0.0060
vn 0.8785 0.4777 -0.0031
vn -0.9810 -0.0873 -0.1730
vn 0.9816 -0.0324 0.1881
vn 0.9443 -0.3219 0.0686
vn 0.9939 0.0986 -0.0499
vn 0.9219 -0.3827 0.0597
vn 0.9235 -0.3827 -0.0262
vn -0.0047 0.8022 -0.5970
vn -0.8927 0.3546 -0.2781
vn -0.4532 0.7287 0.5134
vn -0.4100 0.9067 0.0988
vn -0.0187 0.9955 0.0925
vn -0.9653 0.2239 -0.1345
vn 0.0117 -0.1149 -0.9933
vn 0.9059 0.4210 -0.0454
vn 0.9789 0.2024 0.0279
vn 0.9666 0.2559 0.0125
vn 0.9265 0.3741 0.0411
vn 0.9541 0.2097 -0.2140
vn 0.9854 -0.1020 -0.1363
vn 0.9237 -0.3829 0.0099
s 1
f 103//1 4//2 5//3
f 101//4 2//5 3//6
f 111//7 8//8 9//9
f 102//10 3//6 4//2
f 110//11 7//12 8//8
f 9//9 15//13 16//14
f 16//14 24//15 25//16
f 111//7 37//17 110//11
f 109//18 35//19 108//20
f 33//21 104//22 105//23
f 102//10 29//24 101//4
f 110//11 36//25 109//18
f 34//26 105//23 106//27
f 37//17 43//28 36//25
f 44//29 51//30 43//28
f 103//1 10//31 115//32
f 100//33 1//34 2//5
f 32//35 115//32 104//22
f 58//36 67//37 56//38
f 55//39 68//40 57//41
f 60//42 71//43 72//44
f 72//44 61//45 60//42
f 61//45 70//46 58//36
f 57//41 71//43 59//47
f 64//48 66//49 63//50
f 62//51 66//49 65//52
f 70//46 66//49 67//37
f 66//49 68//40 65//52
f 73//53 69//54 70//46
f 69//54 71//43 68//40
f 21//55 65//52 55//39
f 60//42 58//36 57//41
f 55//39 58//36 56//38
f 79//56 112//57 113//58
f 96//59 88//60 89//61
f 112//57 122//62 113//58
f 104//22 118//63 105//23
f 105//23 119//64 106//27
f 118//63 128//65 119//64
f 117//66 127//67 118//63
f 113//58 74//68 79//56
f 116//69 113//58 122//62
f 123//70 122//62 130//71
f 144//72 153//73 156//74
f 143//75 151//76 141//77
f 146//78 157//79 145//80
f 147//81 158//82 146//78
f 144//72 159//83 147//81
f 145//80 154//84 143//75
f 150//85 152//86 153//73
f 148//87 152//86 149//88
f 153//73 155//89 156//74
f 154//84 152//86 151//76
f 155//89 159//83 156//74
f 157//79 155//89 154//84
f 141//77 148//87 92//90
f 148//87 93//91 92//90
f 144//72 147//81 146//78
f 144//72 141//77 142//92
f 121//93 130//71 122//62
f 5//3 11//94 126//95
f 109//18 120//96 7//12
f 106//27 6//97 107//98
f 111//7 121//93 112//57
f 108//20 6//97 120//96
f 126//95 134//99 12//100
f 3//6 124//101 125//102
f 7//12 14//103 129//104
f 119//64 13//105 6//97
f 4//2 125//102 11//94
f 9//9 17//106 121//93
f 8//8 129//104 15//13
f 120//96 13//105 14//103
f 11//94 20//107 133//108
f 16//14 138//109 17//106
f 15//13 137//110 24//15
f 14//103 23//111 136//112
f 127//67 135//113 128//65
f 126//95 133//108 21//55
f 17//106 26//114 130//71
f 124//101 20//107 125//102
f 129//104 136//112 137//110
f 13//105 135//113 23//111
f 131//115 22//116 127//67
f 45//117 78//118 79//56
f 76//119 40//120 30//121
f 103//1 30//121 102//10
f 101//4 75//122 100//33
f 77//123 106//27 107//98
f 78//118 111//7 112//57
f 108//20 77//123 107//98
f 93//91 41//124 83//125
f 29//24 81//126 75//122
f 38//127 44//29 37//17
f 28//128 80//129 74//68
f 36//25 87//130 35//19
f 86//131 34//26 77//123
f 83//125 76//119 31//132
f 30//121 82//133 29//24
f 89//61 38//127 78//118
f 75//122 39//134 28//128
f 35//19 86//131 77//123
f 42//135 33//21 34//26
f 40//120 91//136 82//133
f 87//130 94//137 86//131
f 49//138 85//139 42//135
f 27//140 130//71 26//114
f 41//124 47//141 40//120
f 53//142 89//61 45//117
f 82//133 46//143 81//126
f 88//60 52//144 44//29
f 43//28 50//145 87//130
f 86//131 49//138 42//135
f 114//146 116//69 1//34
f 115//32 117//66 104//22
f 1//34 123//70 18//147
f 5//3 12//100 10//31
f 2//5 18//147 124//101
f 10//31 131//115 117//66
f 137//110 133//108 24//15
f 124//101 139//148 19//149
f 12//100 140//150 131//115
f 18//147 132//151 139//148
f 114//146 74//68 99//152
f 31//132 103//1 115//32
f 100//33 28//128 114//146
f 85//139 32//35 33//21
f 84//153 31//132 32//35
f 93//91 51//30 52//144
f 81//126 98//154 39//134
f 54//155 83//125 84//153
f 39//134 90//156 80//129
f 48//157 84//153 85//139
f 79//56 80//129 45//117
f 97//158 45//117 80//129
f 56//38 64//48 140//150
f 64//48 134//99 140//150
f 134//99 62//51 21//55
f 56//38 140//150 134//99
f 142//92 150//85 153//73
f 93//91 150//85 54//155
f 93//91 142//92 141//77
f 103//1 102//10 4//2
f 101//4 100//33 2//5
f 111//7 110//11 8//8
f 102//10 101//4 3//6
f 110//11 109//18 7//12
f 9//9 8//8 15//13
f 16//14 15//13 24//15
f 111//7 38//127 37//17
f 109//18 36//25 35//19
f 33//21 32//35 104//22
f 102//10 30//121 29//24
f 110//11 37//17 36//25
f 34//26 33//21 105//23
f 37//17 44//29 43//28
f 44//29 52//144 51//30
f 103//1 5//3 10//31
f 100//33 114//146 1//34
f 32//35 31//132 115//32
f 58//36 70//46 67//37
f 55//39 65//52 68//40
f 60//42 59//47 71//43
f 72//44 73//53 61//45
f 61//45 73//53 70//46
f 57//41 68//40 71//43
f 64//48 67//37 66//49
f 62//51 63//50 66//49
f 70//46 69//54 66//49
f 66//49 69//54 68//40
f 73//53 72//44 69//54
f 69//54 72//44 71//43
f 21//55 62//51 65//52
f 57//41 59//47 60//42
f 60//42 61//45 58//36
f 55//39 57//41 58//36
f 79//56 78//118 112//57
f 96//59 95//159 88//60
f 112//57 121//93 122//62
f 104//22 117//66 118//63
f 105//23 118//63 119//64
f 118//63 127//67 128//65
f 117//66 131//115 127//67
f 113//58 99//152 74//68
f 116//69 99//152 113//58
f 123//70 116//69 122//62
f 144//72 142//92 153//73
f 143//75 154//84 151//76
f 146//78 158//82 157//79
f 147//81 159//83 158//82
f 144//72 156//74 159//83
f 145//80 157//79 154//84
f 150//85 149//88 152//86
f 148//87 151//76 152//86
f 153//73 152//86 155//89
f 154//84 155//89 152//86
f 155//89 158//82 159//83
f 157//79 158//82 155//89
f 141//77 151//76 148//87
f 148//87 149//88 93//91
f 146//78 145//80 143//75
f 143//75 144//72 146//78
f 144//72 143//75 141//77
f 121//93 17//106 130//71
f 5//3 4//2 11//94
f 109//18 108//20 120//96
f 106//27 119//64 6//97
f 111//7 9//9 121//93
f 108//20 107//98 6//97
f 126//95 21//55 134//99
f 3//6 2//5 124//101
f 7//12 120//96 14//103
f 119//64 128//65 13//105
f 4//2 3//6 125//102
f 9//9 16//14 17//106
f 8//8 7//12 129//104
f 120//96 6//97 13//105
f 11//94 125//102 20//107
f 16//14 25//16 138//109
f 15//13 129//104 137//110
f 14//103 13//105 23//111
f 127//67 22//116 135//113
f 126//95 11//94 133//108
f 17//106 138//109 26//114
f 124//101 19//149 20//107
f 129//104 14//103 136//112
f 13//105 128//65 135//113
f 131//115 140//150 22//116
f 45//117 89//61 78//118
f 76//119 41//124 40//120
f 103//1 76//119 30//121
f 101//4 29//24 75//122
f 77//123 34//26 106//27
f 78//118 38//127 111//7
f 108//20 35//19 77//123
f 93//91 92//90 41//124
f 29//24 82//133 81//126
f 38//127 88//60 44//29
f 28//128 39//134 80//129
f 36//25 43//28 87//130
f 86//131 42//135 34//26
f 83//125 41//124 76//119
f 30//121 40//120 82//133
f 89//61 88//60 38//127
f 75//122 81//126 39//134
f 35//19 87//130 86//131
f 42//135 85//139 33//21
f 40//120 47//141 91//136
f 87//130 50//145 94//137
f 49//138 48//157 85//139
f 27//140 132//151 123//70
f 123//70 130//71 27//140
f 41//124 92//90 47//141
f 53//142 96//59 89//61
f 82//133 91//136 46//143
f 88//60 95//159 52//144
f 43//28 51//30 50//145
f 86//131 94//137 49//138
f 114//146 99//152 116//69
f 115//32 10//31 117//66
f 1//34 116//69 123//70
f 5//3 126//95 12//100
f 2//5 1//34 18//147
f 10//31 12//100 131//115
f 132//151 27//140 26//114
f 138//109 25//16 20//107
f 132//151 26//114 139//148
f 20//107 19//149 138//109
f 139//148 26//114 138//109
f 25//16 24//15 133//108
f 136//112 23//111 135//113
f 22//116 140//150 134//99
f 136//112 135//113 22//116
f 137//110 136//112 22//116
f 22//116 134//99 133//108
f 133//108 20//107 25//16
f 134//99 21//55 133//108
f 139//148 138//109 19//149
f 137//110 22//116 133//108
f 124//101 18//147 139//148
f 12//100 134//99 140//150
f 18//147 123//70 132//151
f 114//146 28//128 74//68
f 31//132 76//119 103//1
f 100//33 75//122 28//128
f 85//139 84//153 32//35
f 84//153 83//125 31//132
f 97//158 90//156 53//142
f 98//154 46//143 96//59
f 91//136 47//141 96//59
f 46//143 91//136 96//59
f 53//142 90//156 98//154
f 52//144 92//90 93//91
f 96//59 53//142 98//154
f 47//141 95//159 96//59
f 54//155 48//157 50//145
f 47//141 92//90 95//159
f 93//91 54//155 51//30
f 49//138 94//137 48//157
f 50//145 51//30 54//155
f 95//159 92//90 52//144
f 48//157 94//137 50//145
f 81//126 46//143 98//154
f 54//155 93//91 83//125
f 39//134 98//154 90//156
f 48//157 54//155 84//153
f 79//56 74//68 80//129
f 97//158 53//142 45//117
f 80//129 90//156 97//158
f 56//38 67//37 64//48
f 64//48 63//50 134//99
f 134//99 63//50 62//51
f 134//99 21//55 55//39
f 55//39 56//38 134//99
f 142//92 54//155 150//85
f 93//91 149//88 150//85
f 141//77 92//90 93//91
f 93//91 54//155 142//92
