# Blender v2.71 (sub 0) OBJ File: 'TexturedCube.blend'
# www.blender.org
mtllib Cube.mtl
o Cube
v 1.000000 -1.000000 -1.000000
v 1.000000 -1.000000 1.000000
v -1.000000 -1.000000 1.000000
v -1.000000 -1.000000 -1.000000
v 1.000000 1.000000 -0.999999
v 0.999999 1.000000 1.000001
v -1.000000 1.000000 1.000000
v -1.000000 1.000000 -1.000000
vt 0.000087 0.749956
vt 0.250043 0.749957
vt 0.250043 0.999913
vt 0.500000 0.999913
vt 0.500000 0.749957
vt 0.749956 0.749957
vt 0.250045 0.250043
vt 0.500001 0.250044
vt 0.500000 0.500001
vt 0.250044 0.500000
vt 0.250046 0.000087
vt 0.500002 0.000087
vt 0.000087 0.999913
vt 0.749956 0.999913
vn 0.000000 -1.000000 0.000000
vn 0.000000 1.000000 0.000000
vn 1.000000 -0.000000 0.000000
vn -0.000000 -0.000000 1.000000
vn -1.000000 -0.000000 -0.000000
vn 0.000000 0.000000 -1.000000
g Cube_Cube_Material
usemtl Material
s off
f 2/1/1 3/2/1 4/3/1
f 8/4/2 7/5/2 6/6/2
f 1/7/3 5/8/3 6/9/3
f 2/10/4 6/9/4 7/5/4
f 7/5/5 8/4/5 4/3/5
f 1/7/6 4/11/6 8/12/6
f 1/13/1 2/1/1 4/3/1
f 5/14/2 8/4/2 6/6/2
f 2/10/3 1/7/3 6/9/3
f 3/2/4 2/10/4 7/5/4
f 3/2/5 7/5/5 4/3/5
f 5/8/6 1/7/6 8/12/6
