# Blender v2.78 (sub 0) OBJ File: 'bug.blend'
# www.blender.org
v -0.016254 0.032167 -0.000741
v -0.016254 0.053831 0.020817
v -0.016254 0.074626 0.049197
v -0.015261 0.080427 0.081919
v -0.009607 0.070602 0.108155
v -0.016254 0.016378 0.245254
v -0.016254 -0.009238 0.163593
v -0.016254 -0.021711 0.097016
v -0.016254 -0.010598 0.065347
v -0.013770 0.065047 0.130297
v -0.023926 0.064914 0.088275
v -0.023580 0.058663 0.116322
v -0.028780 0.023262 0.182966
v -0.028780 0.013124 0.165248
v -0.028780 0.001181 0.097028
v -0.028780 0.007623 0.078668
v -0.028780 0.015056 0.058980
v -0.028780 0.032416 0.040354
v -0.036511 0.053012 0.078405
v -0.034525 0.057692 0.085344
v -0.035035 0.056490 0.099760
v -0.036902 0.049773 0.125569
v -0.039462 0.035067 0.133281
v -0.039046 0.019441 0.097037
v -0.039046 0.022158 0.089293
v -0.039046 0.026100 0.071724
v -0.039046 0.025804 0.060422
v 0.014916 0.032167 -0.000741
v 0.013982 0.074829 0.049197
v 0.011482 0.081402 0.081919
v 0.012494 0.065032 0.130297
v 0.014491 0.058549 0.166881
v 0.014916 0.059187 0.213713
v 0.014916 0.041079 0.242840
v 0.014916 -0.001111 0.214691
v 0.015164 -0.009099 0.163593
v 0.017859 -0.020286 0.097016
v 0.015258 -0.010409 0.065347
v 0.027442 0.032416 0.040354
v 0.023477 0.064136 0.088275
v 0.020855 0.062038 0.103485
v 0.027442 0.037583 0.181567
v 0.028779 0.010244 0.135625
v 0.029498 0.003461 0.097028
v 0.027442 0.016970 0.037009
v 0.036731 0.043732 0.078405
v 0.033911 0.055337 0.093345
v 0.035879 0.048226 0.125569
v 0.037142 0.041396 0.132691
v 0.038693 0.030347 0.125809
v 0.039535 0.031034 0.113315
v 0.039325 0.025164 0.097037
v 0.038060 0.028816 0.071724
v 0.035253 0.051442 0.114119
v -0.101689 0.084784 0.070631
v -0.102990 0.081058 0.148449
v -0.139218 0.100714 0.070631
v -0.140265 0.098246 0.148449
v -0.184151 0.119786 0.094441
v -0.184630 0.118658 0.104224
v -0.185198 0.117319 0.120387
v -0.035990 0.054239 0.099760
v -0.036469 0.053111 0.105174
v -0.037111 0.051219 0.114119
v -0.102645 0.082532 0.070631
v -0.103123 0.081404 0.099972
v -0.103887 0.078974 0.148449
v -0.140173 0.098462 0.070631
v -0.140652 0.097334 0.099972
v -0.141221 0.095995 0.148449
v -0.185106 0.117535 0.094441
v -0.185585 0.116407 0.104224
v -0.186154 0.115068 0.120387
v 0.014916 0.013716 -0.029653
v 0.014916 0.053831 0.020817
v 0.008388 0.070641 0.108155
v 0.014916 0.016378 0.245254
v 0.014916 0.002223 0.031387
v 0.014916 0.005525 -0.006511
v 0.027442 0.021719 0.023592
v 0.027137 0.045693 0.052852
v 0.025946 0.058588 0.069305
v 0.022385 0.058453 0.116322
v 0.025731 0.050794 0.137531
v 0.026871 0.049111 0.164681
v 0.027442 0.023262 0.182966
v 0.027866 0.013820 0.165248
v 0.028505 0.009042 0.078668
v 0.027853 0.015793 0.058980
v 0.037871 0.030100 0.066065
v 0.035251 0.050982 0.085344
v 0.033939 0.055594 0.099760
v 0.034175 0.055362 0.105174
v 0.038076 0.034334 0.133281
v 0.038752 0.026873 0.089293
v 0.038265 0.029034 0.080990
v 0.037950 0.027573 0.060422
v 0.037579 0.036936 0.073134
v -0.001038 0.011048 -0.047897
v -0.000669 0.056865 0.009841
v -0.000852 0.080617 0.042307
v -0.002270 0.087163 0.079741
v -0.000790 0.072824 0.109755
v -0.000669 0.062007 0.176937
v -0.000669 0.062993 0.230513
v -0.000669 0.042277 0.263833
v -0.000669 0.014019 0.266595
v -0.000669 -0.005988 0.231632
v -0.000669 -0.015286 0.173176
v -0.000453 -0.029510 0.097013
v -0.000669 -0.016841 0.060783
v -0.000669 -0.002174 0.021933
v -0.000669 0.001603 -0.021422
v -0.000669 0.032082 -0.014822
v -0.000652 0.068370 0.135086
v -0.016553 0.013994 -0.029653
v -0.015657 0.058639 0.166881
v -0.016254 0.059187 0.213713
v -0.016254 0.041079 0.242840
v -0.016254 -0.001111 0.214691
v -0.016254 0.002223 0.031387
v -0.016254 0.005525 -0.006511
v -0.028780 0.021719 0.023592
v -0.028780 0.044975 0.052852
v -0.028780 0.057031 0.069305
v -0.021561 0.062815 0.103485
v -0.028134 0.049247 0.164681
v -0.028780 0.037583 0.181567
v -0.028780 0.008412 0.135625
v -0.028780 0.016970 0.037009
v -0.026759 0.051374 0.137531
v -0.039046 0.028103 0.066065
v -0.033925 0.059104 0.093345
v -0.035513 0.055362 0.105174
v -0.038365 0.042732 0.132691
v -0.040061 0.030522 0.125809
v -0.040703 0.030240 0.113315
v -0.039046 0.025293 0.080990
v -0.039046 0.032615 0.073134
v -0.036439 0.052216 0.114119
v 0.100351 0.084783 0.070631
v 0.101398 0.082316 0.148449
v 0.137880 0.100714 0.070631
v 0.138927 0.098246 0.148449
v 0.182813 0.119786 0.094441
v 0.183292 0.118658 0.104224
v 0.183860 0.117319 0.120387
v 0.034652 0.054239 0.099760
v 0.035131 0.053111 0.105174
v 0.035848 0.050647 0.114119
v 0.101307 0.082532 0.070631
v 0.101785 0.081404 0.099972
v 0.102354 0.080065 0.148449
v 0.138835 0.098462 0.070631
v 0.139314 0.097334 0.099972
v 0.139883 0.095995 0.148449
v 0.183768 0.117535 0.094441
v 0.184247 0.116407 0.104224
v 0.184816 0.115068 0.120387
vn -0.0062 0.9548 0.2972
vn -0.6397 0.7547 0.1457
vn -0.4555 0.8523 0.2571
vn 0.0045 0.9086 -0.4177
vn -0.7414 0.5104 -0.4357
vn -0.6939 0.6656 -0.2748
vn 0.0001 -0.9393 -0.3430
vn -0.6677 -0.7423 -0.0570
vn -0.6775 -0.6911 -0.2517
vn -0.0407 0.9936 0.1052
vn 0.0047 -0.9975 -0.0705
vn -0.6855 -0.7174 0.1238
vn -0.8803 -0.4734 -0.0299
vn -0.8629 -0.4748 -0.1729
vn -0.9345 -0.3556 0.0157
vn -0.9709 -0.2156 -0.1039
vn 0.6747 -0.6887 -0.2652
vn 0.0002 -0.9860 0.1664
vn 0.7456 -0.6362 0.1980
vn 0.0000 -0.9180 0.3965
vn 0.6638 0.7331 0.1478
vn 0.0011 0.9993 0.0374
vn 0.0000 0.9275 0.3739
vn 0.6859 0.6804 -0.2581
vn 0.6865 -0.7154 0.1299
vn 0.8535 0.3252 0.4072
vn 0.0000 0.4539 0.8910
vn 0.6898 -0.7214 -0.0614
vn 0.8970 -0.4331 0.0887
vn 0.9045 -0.4247 -0.0389
vn 0.9964 -0.0780 0.0314
vn -0.5010 0.8545 0.1368
vn 0.0007 0.9866 0.1629
vn 0.0004 0.7480 -0.6637
vn -0.7294 0.5369 -0.4239
vn 0.4675 0.8824 0.0526
vn -0.4417 -0.5313 0.7229
vn 0.4075 0.5179 0.7521
vn 0.0790 0.6653 0.7424
vn 0.1058 0.6856 -0.7202
vn -0.1229 -0.6568 -0.7440
vn -0.4098 -0.5276 -0.7441
vn -0.3787 0.9239 0.0541
vn -0.8510 -0.2574 -0.4577
vn -0.9253 -0.3717 -0.0750
vn -0.4223 0.8002 0.4259
vn -0.8739 -0.3138 0.3712
vn -0.3491 0.8572 -0.3786
vn 0.2966 -0.8896 0.3474
vn -0.3921 -0.9186 -0.0492
vn 0.3807 -0.9088 -0.1704
vn 0.4121 -0.7558 -0.5089
vn -0.1251 -0.6890 0.7139
vn -0.3924 -0.9188 -0.0416
vn -0.4712 0.8760 -0.1023
vn 0.4003 0.5712 -0.7166
vn 0.6533 -0.7422 -0.1493
vn 0.0000 -0.9834 -0.1814
vn -0.0005 -0.9645 -0.2638
vn 0.9826 -0.1699 -0.0749
vn 0.8830 -0.4324 -0.1825
vn 0.8429 -0.5259 -0.1139
vn -0.6510 -0.7444 -0.1483
vn -0.6638 0.7331 0.1479
vn -0.8535 0.3252 0.4072
vn -0.9674 0.1608 0.1955
vn -0.4626 0.8849 0.0542
vn -0.7906 0.6002 0.1208
vn 0.8292 -0.0419 -0.5574
vn -0.8336 -0.0308 -0.5515
vn -0.9723 0.0002 -0.2336
vn -0.8128 -0.5719 -0.1101
vn -0.4039 0.5328 0.7436
vn 0.4375 -0.5348 0.7229
vn -0.0712 0.6658 0.7427
vn -0.1058 0.6856 -0.7202
vn 0.1229 -0.6568 -0.7440
vn -0.3974 0.5693 -0.7197
vn 0.3787 0.9239 0.0541
vn 0.8510 -0.2574 -0.4577
vn 0.3491 0.8572 -0.3786
vn 0.4223 0.8002 0.4259
vn 0.9253 -0.3717 -0.0750
vn 0.8739 -0.3138 0.3712
vn 0.4098 -0.5276 -0.7441
vn -0.2751 -0.9050 0.3245
vn 0.3919 -0.9190 -0.0431
vn 0.1147 -0.6789 0.7252
vn -0.3866 -0.7724 -0.5039
vn -0.3890 -0.8997 -0.1979
vn 0.3924 -0.9188 -0.0416
vn 0.3781 0.8796 -0.2886
vn 0.0480 0.9837 0.1730
vn -0.6299 -0.7592 -0.1639
vn -0.6779 0.7282 0.1008
vn -0.5233 0.8297 0.1942
vn -0.7458 -0.6362 0.1975
vn -0.8644 -0.2874 0.4125
vn 0.0000 -0.3929 0.9196
vn -0.0698 0.9738 0.2163
vn -0.5474 0.8182 0.1756
vn -0.9033 0.3149 -0.2911
vn -0.8017 0.5482 -0.2380
vn -0.9196 -0.3759 0.1135
vn -0.8878 -0.4535 0.0783
vn -0.9742 -0.1335 0.1820
vn -0.8204 -0.5596 -0.1175
vn -0.7491 0.6527 -0.1135
vn -0.7047 0.7064 0.0662
vn -0.9771 -0.2063 -0.0509
vn -0.9951 -0.0973 0.0193
vn -0.9913 0.0108 0.1312
vn -0.9860 -0.1535 0.0654
vn -0.9617 0.2490 0.1144
vn -0.9391 -0.3427 -0.0244
vn -0.9016 0.3927 -0.1815
vn -0.4825 0.8697 0.1041
vn -0.7738 0.6230 0.1140
vn 0.8223 -0.5599 -0.1018
vn 0.6301 -0.7589 -0.1645
vn 0.4567 0.8524 0.2547
vn 0.7237 0.6857 0.0780
vn 0.5824 0.8025 0.1295
vn 0.7415 0.5138 -0.4314
vn 0.8644 -0.2874 0.4125
vn 0.5476 0.8195 0.1686
vn 0.5603 0.8094 0.1761
vn 0.8935 0.3511 -0.2799
vn 0.7315 0.5316 -0.4270
vn 0.9720 -0.0004 -0.2351
vn 0.9225 -0.3669 0.1196
vn 0.9743 -0.1287 0.1849
vn 0.5049 0.8522 0.1371
vn 0.8461 0.5045 -0.1718
vn 0.8798 0.3748 -0.2922
vn 0.9677 0.1602 0.1947
vn 0.9053 0.4131 -0.0992
vn 0.9907 0.0010 0.1357
vn 0.9644 0.2363 0.1187
vn 0.7965 0.5938 0.1142
vn -0.9810 -0.0873 -0.1730
vn 0.8253 0.5637 -0.0332
vn 0.9549 -0.2968 -0.0116
vn 0.9492 0.2832 -0.1372
vn 0.9834 -0.1509 -0.1003
vn 0.9853 -0.1575 0.0663
vn 0.0039 0.8054 -0.5927
vn -0.8927 0.3546 -0.2781
vn -0.9854 0.1433 -0.0914
vn -0.3319 0.7677 0.5481
vn -0.9653 0.2239 -0.1345
vn -0.0088 -0.1225 -0.9924
vn 0.5176 0.8499 0.0985
vn 0.9836 -0.1787 -0.0215
vn 0.9646 0.2157 -0.1516
vn 0.3657 0.7218 0.5876
vn 0.9599 0.2323 -0.1568
vn 0.8128 0.5686 0.1263
vn 0.9839 -0.0748 -0.1623
s 1
f 103//1 4//2 5//3
f 101//4 2//5 3//6
f 111//7 8//8 9//9
f 102//10 3//6 4//2
f 110//11 7//12 8//8
f 9//9 15//13 16//14
f 16//14 24//15 25//16
f 38//17 110//11 111//7
f 109//18 35//19 108//20
f 33//21 104//22 105//23
f 102//10 29//24 101//4
f 110//11 36//25 109//18
f 34//26 105//23 106//27
f 37//28 43//29 36//25
f 44//30 51//31 43//29
f 103//1 10//32 115//33
f 100//34 1//35 2//5
f 32//36 115//33 104//22
f 70//37 56//38 58//39
f 57//40 65//41 68//42
f 60//43 71//44 72//45
f 72//45 61//46 60//43
f 73//47 58//39 61//46
f 59//48 68//42 71//44
f 64//49 66//50 63//51
f 62//52 66//50 65//41
f 70//37 66//50 67//53
f 65//41 69//54 68//42
f 73//47 69//54 70//37
f 69//54 71//44 68//42
f 21//55 65//41 55//56
f 60//43 58//39 57//40
f 55//56 58//39 56//38
f 79//57 112//58 113//59
f 96//60 88//61 89//62
f 112//58 122//63 113//59
f 104//22 118//64 105//23
f 105//23 119//65 106//27
f 118//64 128//66 119//65
f 117//67 127//68 118//64
f 113//59 74//69 79//57
f 116//70 113//59 122//63
f 123//71 122//63 130//72
f 142//73 156//74 144//75
f 143//76 151//77 141//78
f 146//79 157//80 145//81
f 147//82 158//83 146//79
f 144//75 159//84 147//82
f 145//81 154//85 143//76
f 150//86 152//87 153//88
f 148//89 152//87 149//90
f 153//88 155//91 156//74
f 151//77 155//91 152//87
f 155//91 159//84 156//74
f 157//80 155//91 154//85
f 141//78 148//89 92//92
f 148//89 93//93 92//92
f 144//75 147//82 146//79
f 144//75 141//78 142//73
f 121//94 130//72 122//63
f 5//3 11//95 126//96
f 109//18 120//97 7//12
f 106//27 6//98 107//99
f 111//7 121//94 112//58
f 108//20 6//98 120//97
f 126//96 134//100 12//101
f 3//6 124//102 125//103
f 7//12 14//104 129//105
f 119//65 13//106 6//98
f 4//2 125//103 11//95
f 9//9 17//107 121//94
f 8//8 129//105 15//13
f 120//97 13//106 14//104
f 11//95 20//108 133//109
f 16//14 138//110 17//107
f 15//13 137//111 24//15
f 14//104 23//112 136//113
f 127//68 135//114 128//66
f 126//96 133//109 21//55
f 17//107 26//115 130//72
f 125//103 19//116 20//108
f 129//105 136//113 137//111
f 128//66 23//112 13//106
f 131//117 22//118 127//68
f 45//119 78//120 79//57
f 76//121 40//122 30//123
f 103//1 30//123 102//10
f 101//4 75//124 100//34
f 77//125 106//27 107//99
f 78//120 111//7 112//58
f 108//20 77//125 107//99
f 93//93 41//126 83//127
f 29//24 81//128 75//124
f 88//61 37//28 38//17
f 28//129 80//130 74//69
f 36//25 87//131 35//19
f 86//132 34//26 77//125
f 83//127 76//121 31//133
f 30//123 82//134 29//24
f 89//62 38//17 78//120
f 75//124 39//135 28//129
f 35//19 86//132 77//125
f 42//136 33//21 34//26
f 40//122 91//137 82//134
f 87//131 94//138 86//132
f 49//139 85//140 42//136
f 27//141 130//72 26//115
f 41//126 47//142 40//122
f 53//143 89//62 45//119
f 82//134 46//144 81//128
f 95//145 44//30 88//61
f 43//29 50//146 87//131
f 94//138 42//136 86//132
f 114//147 116//70 1//35
f 115//33 117//67 104//22
f 1//35 123//71 18//148
f 5//3 12//101 10//32
f 2//5 18//148 124//102
f 10//32 131//117 117//67
f 134//100 21//55 137//111
f 124//102 139//149 19//116
f 12//101 140//150 131//117
f 18//148 132//151 139//149
f 114//147 74//69 99//152
f 31//133 103//1 115//33
f 100//34 28//129 114//147
f 85//140 32//36 33//21
f 84//153 31//133 32//36
f 52//154 91//137 47//142
f 81//128 98//155 39//135
f 54//156 83//127 84//153
f 39//135 90//157 80//130
f 48//158 84//153 85//140
f 79//57 80//130 45//119
f 97//159 45//119 80//130
f 56//38 64//49 140//150
f 140//150 63//51 134//100
f 134//100 62//52 21//55
f 56//38 140//150 134//100
f 142//73 150//86 153//88
f 54//156 149//90 150//86
f 93//93 142//73 141//78
f 103//1 102//10 4//2
f 101//4 100//34 2//5
f 111//7 110//11 8//8
f 102//10 101//4 3//6
f 110//11 109//18 7//12
f 9//9 8//8 15//13
f 16//14 15//13 24//15
f 38//17 37//28 110//11
f 109//18 36//25 35//19
f 33//21 32//36 104//22
f 102//10 30//123 29//24
f 110//11 37//28 36//25
f 34//26 33//21 105//23
f 37//28 44//30 43//29
f 44//30 52//154 51//31
f 103//1 5//3 10//32
f 100//34 114//147 1//35
f 32//36 31//133 115//33
f 70//37 67//53 56//38
f 57//40 55//56 65//41
f 60//43 59//48 71//44
f 72//45 73//47 61//46
f 73//47 70//37 58//39
f 59//48 57//40 68//42
f 64//49 67//53 66//50
f 62//52 63//51 66//50
f 70//37 69//54 66//50
f 65//41 66//50 69//54
f 73//47 72//45 69//54
f 69//54 72//45 71//44
f 21//55 62//52 65//41
f 57//40 59//48 60//43
f 60//43 61//46 58//39
f 55//56 57//40 58//39
f 79//57 78//120 112//58
f 96//60 95//145 88//61
f 112//58 121//94 122//63
f 104//22 117//67 118//64
f 105//23 118//64 119//65
f 118//64 127//68 128//66
f 117//67 131//117 127//68
f 113//59 99//152 74//69
f 116//70 99//152 113//59
f 123//71 116//70 122//63
f 142//73 153//88 156//74
f 143//76 154//85 151//77
f 146//79 158//83 157//80
f 147//82 159//84 158//83
f 144//75 156//74 159//84
f 145//81 157//80 154//85
f 150//86 149//90 152//87
f 148//89 151//77 152//87
f 153//88 152//87 155//91
f 151//77 154//85 155//91
f 155//91 158//83 159//84
f 157//80 158//83 155//91
f 141//78 151//77 148//89
f 148//89 149//90 93//93
f 146//79 145//81 143//76
f 143//76 144//75 146//79
f 144//75 143//76 141//78
f 121//94 17//107 130//72
f 5//3 4//2 11//95
f 109//18 108//20 120//97
f 106//27 119//65 6//98
f 111//7 9//9 121//94
f 108//20 107//99 6//98
f 126//96 21//55 134//100
f 3//6 2//5 124//102
f 7//12 120//97 14//104
f 119//65 128//66 13//106
f 4//2 3//6 125//103
f 9//9 16//14 17//107
f 8//8 7//12 129//105
f 120//97 6//98 13//106
f 11//95 125//103 20//108
f 16//14 25//16 138//110
f 15//13 129//105 137//111
f 14//104 13//106 23//112
f 127//68 22//118 135//114
f 126//96 11//95 133//109
f 17//107 138//110 26//115
f 125//103 124//102 19//116
f 129//105 14//104 136//113
f 128//66 135//114 23//112
f 131//117 140//150 22//118
f 45//119 89//62 78//120
f 76//121 41//126 40//122
f 103//1 76//121 30//123
f 101//4 29//24 75//124
f 77//125 34//26 106//27
f 78//120 38//17 111//7
f 108//20 35//19 77//125
f 93//93 92//92 41//126
f 29//24 82//134 81//128
f 88//61 44//30 37//28
f 28//129 39//135 80//130
f 36//25 43//29 87//131
f 86//132 42//136 34//26
f 83//127 41//126 76//121
f 30//123 40//122 82//134
f 89//62 88//61 38//17
f 75//124 81//128 39//135
f 35//19 87//131 86//132
f 42//136 85//140 33//21
f 40//122 47//142 91//137
f 87//131 50//146 94//138
f 49//139 48//158 85//140
f 27//141 132//151 123//71
f 123//71 130//72 27//141
f 41//126 92//92 47//142
f 53//143 96//60 89//62
f 82//134 91//137 46//144
f 95//145 52//154 44//30
f 43//29 51//31 50//146
f 94//138 49//139 42//136
f 114//147 99//152 116//70
f 115//33 10//32 117//67
f 1//35 116//70 123//71
f 5//3 126//96 12//101
f 2//5 1//35 18//148
f 10//32 12//101 131//117
f 132//151 27//141 26//115
f 138//110 25//16 19//116
f 132//151 26//115 139//149
f 20//108 19//116 21//55
f 139//149 26//115 138//110
f 25//16 24//15 137//111
f 137//111 136//113 22//118
f 23//112 135//114 136//113
f 140//150 134//100 137//111
f 135//114 22//118 136//113
f 25//16 21//55 19//116
f 19//116 139//149 138//110
f 21//55 133//109 20//108
f 22//118 140//150 137//111
f 25//16 137//111 21//55
f 124//102 18//148 139//149
f 12//101 134//100 140//150
f 18//148 123//71 132//151
f 114//147 28//129 74//69
f 31//133 76//121 103//1
f 100//34 75//124 28//129
f 85//140 84//153 32//36
f 84//153 83//127 31//133
f 98//155 46//144 96//60
f 91//137 52//154 95//145
f 92//92 93//93 51//31
f 54//156 48//158 51//31
f 49//139 94//138 50//146
f 51//31 52//154 92//92
f 49//139 50//146 48//158
f 93//93 54//156 51//31
f 46//144 95//145 96//60
f 53//143 97//159 90//157
f 90//157 98//155 53//143
f 48//158 50//146 51//31
f 52//154 47//142 92//92
f 96//60 53//143 98//155
f 91//137 95//145 46//144
f 81//128 46//144 98//155
f 54//156 93//93 83//127
f 39//135 98//155 90//157
f 48//158 54//156 84//153
f 79//57 74//69 80//130
f 97//159 53//143 45//119
f 80//130 90//157 97//159
f 56//38 67//53 64//49
f 140//150 64//49 63//51
f 134//100 63//51 62//52
f 134//100 21//55 55//56
f 55//56 56//38 134//100
f 142//73 54//156 150//86
f 54//156 93//93 149//90
f 141//78 92//92 93//93
f 93//93 54//156 142//73
