# Blender v2.78 (sub 0) OBJ File: 'bug.blend'
# www.blender.org
v -0.016254 0.032167 -0.000741
v -0.016254 0.053831 0.020817
v -0.016254 0.074626 0.049197
v -0.016181 0.080921 0.081919
v -0.015681 0.069565 0.108155
v -0.016254 0.016378 0.245254
v -0.016254 -0.009238 0.163593
v -0.016254 -0.021711 0.097016
v -0.016254 -0.010598 0.065347
v -0.016042 0.064401 0.130297
v -0.028396 0.061153 0.088275
v -0.028422 0.051840 0.116322
v -0.028780 0.023262 0.182966
v -0.028780 0.013124 0.165248
v -0.028780 0.001181 0.097028
v -0.028780 0.007623 0.078668
v -0.028780 0.015056 0.058980
v -0.028780 0.032416 0.040354
v -0.039068 0.039378 0.078405
v -0.038874 0.044459 0.085344
v -0.038924 0.043155 0.099760
v -0.039027 0.040253 0.125569
v -0.039194 0.029342 0.133281
v -0.039046 0.019441 0.097037
v -0.039046 0.022158 0.089293
v -0.039046 0.026100 0.071724
v -0.039046 0.025804 0.060422
v 0.014916 0.032167 -0.000741
v 0.014831 0.074661 0.049197
v 0.014603 0.081012 0.081919
v 0.014709 0.064398 0.130297
v 0.014880 0.058354 0.166881
v 0.014916 0.059187 0.213713
v 0.014916 0.041079 0.242840
v 0.014916 -0.001111 0.214691
v 0.014942 -0.009230 0.163593
v 0.015218 -0.021628 0.097016
v 0.014951 -0.010586 0.065347
v 0.027442 0.032416 0.040354
v 0.027128 0.061065 0.088275
v 0.026961 0.054814 0.103485
v 0.027442 0.037583 0.181567
v 0.027599 0.008561 0.135625
v 0.027675 0.001360 0.097028
v 0.027442 0.016970 0.037009
v 0.037717 0.038477 0.078405
v 0.037537 0.045615 0.093345
v 0.037691 0.040101 0.125569
v 0.037769 0.035426 0.132691
v 0.037902 0.025014 0.125809
v 0.038028 0.023264 0.113315
v 0.037959 0.019953 0.097037
v 0.037788 0.026350 0.071724
v 0.037692 0.040225 0.114119
v -0.111282 0.045921 0.070631
v -0.111386 0.043120 0.148449
v -0.152022 0.047479 0.070631
v -0.152124 0.044800 0.148449
v -0.200800 0.049343 0.094441
v -0.200847 0.048119 0.104224
v -0.200902 0.046665 0.120387
v -0.039017 0.040711 0.099760
v -0.039064 0.039486 0.105174
v -0.039117 0.037979 0.114119
v -0.111375 0.043477 0.070631
v -0.111422 0.042252 0.099972
v -0.111477 0.040692 0.148449
v -0.152115 0.045034 0.070631
v -0.152162 0.043810 0.099972
v -0.152218 0.042356 0.148449
v -0.200893 0.046899 0.094441
v -0.200940 0.045675 0.104224
v -0.200996 0.044221 0.120387
v 0.014916 0.013716 -0.029653
v 0.014916 0.053831 0.020817
v 0.014351 0.069562 0.108155
v 0.014916 0.016378 0.245254
v 0.014916 0.002223 0.031387
v 0.014916 0.005525 -0.006511
v 0.027442 0.021719 0.023592
v 0.027425 0.045048 0.052852
v 0.027328 0.057204 0.069305
v 0.027094 0.051818 0.116322
v 0.027336 0.047913 0.137531
v 0.027406 0.048188 0.164681
v 0.027442 0.023262 0.182966
v 0.027494 0.013182 0.165248
v 0.027566 0.007739 0.078668
v 0.027493 0.015119 0.058980
v 0.037758 0.028288 0.066065
v 0.037615 0.043791 0.085344
v 0.037593 0.043066 0.099760
v 0.037633 0.041930 0.105174
v 0.037839 0.029274 0.133281
v 0.037888 0.022585 0.089293
v 0.037825 0.025636 0.080990
v 0.037761 0.025966 0.060422
v 0.037771 0.033024 0.073134
v -0.000705 0.010974 -0.047897
v -0.000669 0.056865 0.009841
v -0.000687 0.080654 0.042307
v -0.000826 0.087828 0.079741
v -0.000681 0.074532 0.109755
v -0.000669 0.062007 0.176937
v -0.000669 0.062993 0.230513
v -0.000669 0.042277 0.263833
v -0.000669 0.014019 0.266595
v -0.000669 -0.005988 0.231632
v -0.000669 -0.015286 0.173176
v -0.000648 -0.029554 0.097013
v -0.000669 -0.016841 0.060783
v -0.000669 -0.002174 0.021933
v -0.000669 0.001603 -0.021422
v -0.000669 0.032082 -0.014822
v -0.000667 0.068810 0.135086
v -0.016287 0.013737 -0.029653
v -0.016203 0.058366 0.166881
v -0.016254 0.059187 0.213713
v -0.016254 0.041079 0.242840
v -0.016254 -0.001111 0.214691
v -0.016254 0.002223 0.031387
v -0.016254 0.005525 -0.006511
v -0.028780 0.021719 0.023592
v -0.028780 0.044975 0.052852
v -0.028780 0.057031 0.069305
v -0.028253 0.054898 0.103485
v -0.028739 0.048202 0.164681
v -0.028780 0.037583 0.181567
v -0.028780 0.008412 0.135625
v -0.028780 0.016970 0.037009
v -0.028655 0.047974 0.137531
v -0.039046 0.028103 0.066065
v -0.038816 0.045993 0.093345
v -0.038971 0.041930 0.105174
v -0.039119 0.035554 0.132691
v -0.039246 0.025030 0.125809
v -0.039336 0.023192 0.113315
v -0.039046 0.025293 0.080990
v -0.039046 0.032615 0.073134
v -0.039029 0.040300 0.114119
v 0.109944 0.045921 0.070631
v 0.110046 0.043243 0.148449
v 0.150684 0.047479 0.070631
v 0.150786 0.044800 0.148449
v 0.199462 0.049343 0.094441
v 0.199509 0.048119 0.104224
v 0.199564 0.046665 0.120387
v 0.037680 0.040711 0.099760
v 0.037726 0.039486 0.105174
v 0.037776 0.037924 0.114119
v 0.110037 0.043477 0.070631
v 0.110084 0.042252 0.099972
v 0.110140 0.040799 0.148449
v 0.150777 0.045034 0.070631
v 0.150824 0.043810 0.099972
v 0.150880 0.042356 0.148449
v 0.199555 0.046899 0.094441
v 0.199602 0.045675 0.104224
v 0.199658 0.044221 0.120387
vn -0.0002 0.9494 0.3139
vn -0.6206 0.7780 0.0971
vn -0.5809 0.7733 0.2541
vn 0.0001 0.9053 -0.4247
vn -0.7411 0.5108 -0.4356
vn -0.6912 0.6652 -0.2824
vn -0.0003 -0.9392 -0.3433
vn -0.6701 -0.7400 -0.0576
vn -0.6775 -0.6911 -0.2517
vn -0.0035 0.9964 0.0841
vn -0.0009 -0.9975 -0.0709
vn -0.6859 -0.7170 0.1242
vn -0.8745 -0.4834 -0.0384
vn -0.8629 -0.4748 -0.1729
vn -0.9560 -0.2921 -0.0273
vn -0.9647 -0.2473 -0.0902
vn 0.6712 -0.7390 -0.0582
vn -0.0001 -0.9860 0.1667
vn 0.7458 -0.6362 0.1976
vn 0.0000 -0.9180 0.3965
vn 0.6637 0.7332 0.1476
vn 0.0002 0.9992 0.0399
vn 0.0000 0.9275 0.3739
vn 0.6900 0.6670 -0.2810
vn 0.6856 -0.7171 0.1251
vn 0.8535 0.3252 0.4072
vn 0.0000 0.4539 0.8910
vn 0.8700 -0.4855 0.0858
vn 0.8767 -0.4794 -0.0399
vn 0.9706 -0.2363 0.0448
vn -0.5709 0.8064 0.1544
vn 0.0001 0.9825 0.1864
vn 0.0000 0.7478 -0.6639
vn -0.7313 0.5322 -0.4267
vn 0.4892 0.8705 0.0533
vn -0.2194 -0.6552 0.7229
vn 0.1889 0.6402 0.7445
vn -0.1692 0.6479 0.7426
vn -0.1447 0.6785 -0.7202
vn 0.1184 -0.6576 -0.7440
vn -0.1956 -0.6387 -0.7441
vn -0.6822 0.7291 0.0541
vn -0.7041 -0.5429 -0.4577
vn -0.7328 -0.6762 -0.0750
vn -0.6790 0.5980 0.4258
vn -0.7054 -0.6038 0.3712
vn -0.6308 0.6772 -0.3786
vn 0.6448 -0.6655 0.3759
vn -0.0370 -0.9984 -0.0416
vn 0.6786 -0.7216 -0.1364
vn 0.6537 -0.5600 -0.5089
vn 0.1368 -0.6777 0.7225
vn -0.0404 -0.9983 -0.0416
vn -0.7086 0.6999 -0.0889
vn 0.1692 0.6736 -0.7194
vn 0.6533 -0.7422 -0.1493
vn 0.0000 -0.9834 -0.1814
vn 0.0000 -0.9649 -0.2624
vn 0.9681 -0.2394 -0.0736
vn 0.8642 -0.4719 -0.1745
vn 0.8222 -0.5568 -0.1177
vn -0.6530 -0.7425 -0.1491
vn -0.6637 0.7332 0.1476
vn -0.8535 0.3252 0.4072
vn -0.9690 0.1545 0.1926
vn -0.4887 0.8708 0.0534
vn -0.8209 0.5638 0.0910
vn 0.8318 -0.0410 -0.5535
vn -0.8322 -0.0403 -0.5530
vn -0.9721 0.0002 -0.2343
vn -0.8128 -0.5719 -0.1101
vn -0.1883 0.6413 0.7437
vn 0.2189 -0.6554 0.7229
vn 0.1700 0.6477 0.7427
vn 0.1956 -0.6387 -0.7441
vn -0.1690 0.6734 -0.7197
vn 0.1447 0.6785 -0.7202
vn 0.6822 0.7291 0.0541
vn 0.7041 -0.5429 -0.4577
vn 0.6308 0.6772 -0.3786
vn 0.6790 0.5980 0.4258
vn 0.7328 -0.6762 -0.0750
vn 0.7054 -0.6038 0.3712
vn -0.6449 -0.6664 0.3742
vn 0.0370 -0.9985 -0.0410
vn -0.1373 -0.6764 0.7236
vn -0.6540 -0.5595 -0.5090
vn -0.6794 -0.7205 -0.1386
vn -0.1184 -0.6576 -0.7440
vn 0.0404 -0.9983 -0.0416
vn 0.6994 0.7080 -0.0981
vn 0.3980 0.9047 0.1517
vn -0.6299 -0.7592 -0.1639
vn -0.8227 0.5627 0.0810
vn -0.7648 0.6137 0.1960
vn -0.7458 -0.6362 0.1975
vn -0.8644 -0.2874 0.4125
vn 0.0000 -0.3929 0.9196
vn -0.4002 0.9036 0.1529
vn -0.7588 0.6394 0.1243
vn -0.9072 0.3182 -0.2753
vn -0.8783 0.4418 -0.1824
vn -0.9124 -0.3911 0.1210
vn -0.8688 -0.4878 0.0844
vn -0.9740 -0.1323 0.1836
vn -0.8204 -0.5596 -0.1175
vn -0.9537 0.2873 -0.0887
vn -0.9277 0.3668 0.0695
vn -0.9670 -0.2448 -0.0709
vn -0.9701 -0.2390 0.0413
vn -0.9870 -0.0995 0.1263
vn -0.9667 -0.2492 0.0584
vn -0.9832 0.1333 0.1245
vn -0.9391 -0.3427 -0.0244
vn -0.9712 0.1866 -0.1483
vn -0.6852 0.7266 0.0494
vn -0.8917 0.4518 0.0271
vn 0.8134 -0.5712 -0.1097
vn 0.6298 -0.7591 -0.1641
vn 0.5811 0.7733 0.2534
vn 0.8245 0.5602 0.0787
vn 0.6156 0.7821 0.0964
vn 0.7411 0.5111 -0.4353
vn 0.8644 -0.2874 0.4125
vn 0.7665 0.6124 0.1936
vn 0.7595 0.6384 0.1246
vn 0.9065 0.3215 -0.2736
vn 0.6771 -0.6908 -0.2536
vn 0.7315 0.5316 -0.4270
vn 0.9721 0.0002 -0.2346
vn 0.9128 -0.3897 0.1219
vn 0.9741 -0.1316 0.1839
vn 0.5712 0.8061 0.1545
vn 0.8802 0.4395 -0.1793
vn 0.8913 0.3566 -0.2801
vn 0.9691 0.1544 0.1924
vn 0.9557 0.2780 -0.0968
vn 0.9869 -0.0998 0.1268
vn 0.9833 0.1321 0.1249
vn 0.8214 0.5631 0.0903
vn -0.9810 -0.0873 -0.1730
vn 0.9292 0.3643 0.0613
vn 0.9403 -0.3395 -0.0249
vn 0.9716 0.1873 -0.1447
vn 0.9592 -0.2814 -0.0275
vn 0.9669 -0.2483 0.0587
vn 0.0003 0.8037 -0.5949
vn -0.8927 0.3546 -0.2781
vn -0.5314 0.7522 0.3897
vn -0.9812 0.1339 -0.1390
vn -0.9653 0.2239 -0.1345
vn -0.0008 -0.1232 -0.9924
vn 0.6876 0.7244 0.0493
vn 0.5291 0.7506 0.3957
vn 0.9778 0.1559 -0.1397
vn 0.9651 0.2222 -0.1385
vn 0.8944 0.4462 0.0292
vn 0.9811 -0.0862 -0.1731
vn 0.9662 -0.2408 -0.0923
s 1
f 103//1 4//2 5//3
f 101//4 2//5 3//6
f 111//7 8//8 9//9
f 102//10 3//6 4//2
f 110//11 7//12 8//8
f 9//9 15//13 16//14
f 16//14 24//15 25//16
f 111//7 37//17 110//11
f 109//18 35//19 108//20
f 33//21 104//22 105//23
f 102//10 29//24 101//4
f 110//11 36//25 109//18
f 34//26 105//23 106//27
f 37//17 43//28 36//25
f 44//29 51//30 43//28
f 103//1 10//31 115//32
f 100//33 1//34 2//5
f 32//35 115//32 104//22
f 70//36 56//37 58//38
f 57//39 65//40 68//41
f 60//42 71//43 72//44
f 72//44 61//45 60//42
f 73//46 58//38 61//45
f 57//39 71//43 59//47
f 64//48 66//49 63//50
f 62//51 66//49 65//40
f 70//36 66//49 67//52
f 65//40 69//53 68//41
f 73//46 69//53 70//36
f 69//53 71//43 68//41
f 21//54 65//40 55//55
f 60//42 58//38 57//39
f 55//55 58//38 56//37
f 79//56 112//57 113//58
f 96//59 88//60 89//61
f 112//57 122//62 113//58
f 104//22 118//63 105//23
f 105//23 119//64 106//27
f 118//63 128//65 119//64
f 117//66 127//67 118//63
f 113//58 74//68 79//56
f 116//69 113//58 122//62
f 123//70 122//62 130//71
f 142//72 156//73 144//74
f 154//75 141//76 143//77
f 146//78 157//79 145//80
f 147//81 158//82 146//78
f 147//81 156//73 159//83
f 157//79 143//77 145//80
f 150//84 152//85 153//86
f 148//87 152//85 149//88
f 152//85 156//73 153//86
f 154//75 152//85 151//89
f 155//90 159//83 156//73
f 157//79 155//90 154//75
f 151//89 92//91 141//76
f 148//87 93//92 92//91
f 144//74 147//81 146//78
f 142//72 143//77 141//76
f 121//93 130//71 122//62
f 5//3 11//94 126//95
f 109//18 120//96 7//12
f 106//27 6//97 107//98
f 111//7 121//93 112//57
f 108//20 6//97 120//96
f 126//95 134//99 12//100
f 3//6 124//101 125//102
f 7//12 14//103 129//104
f 119//64 13//105 6//97
f 4//2 125//102 11//94
f 9//9 17//106 121//93
f 8//8 129//104 15//13
f 120//96 13//105 14//103
f 11//94 20//107 133//108
f 16//14 138//109 17//106
f 15//13 137//110 24//15
f 14//103 23//111 136//112
f 127//67 135//113 128//65
f 126//95 133//108 21//54
f 17//106 26//114 130//71
f 125//102 19//115 20//107
f 129//104 136//112 137//110
f 128//65 23//111 13//105
f 131//116 22//117 127//67
f 45//118 78//119 79//56
f 76//120 40//121 30//122
f 103//1 30//122 102//10
f 101//4 75//123 100//33
f 77//124 106//27 107//98
f 78//119 111//7 112//57
f 108//20 77//124 107//98
f 93//92 41//125 83//126
f 29//24 81//127 75//123
f 38//128 44//29 37//17
f 28//129 80//130 74//68
f 36//25 87//131 35//19
f 86//132 34//26 77//124
f 83//126 76//120 31//133
f 30//122 82//134 29//24
f 89//61 38//128 78//119
f 75//123 39//135 28//129
f 35//19 86//132 77//124
f 42//136 33//21 34//26
f 40//121 91//137 82//134
f 87//131 94//138 86//132
f 49//139 85//140 42//136
f 27//141 130//71 26//114
f 41//125 47//142 40//121
f 53//143 89//61 45//118
f 82//134 46//144 81//127
f 88//60 52//145 44//29
f 43//28 50//146 87//131
f 94//138 42//136 86//132
f 114//147 116//69 1//34
f 115//32 117//66 104//22
f 1//34 123//70 18//148
f 5//3 12//100 10//31
f 2//5 18//148 124//101
f 10//31 131//116 117//66
f 140//149 134//99 137//110
f 124//101 139//150 19//115
f 12//100 140//149 131//116
f 18//148 132//151 139//150
f 114//147 74//68 99//152
f 31//133 103//1 115//32
f 100//33 28//129 114//147
f 85//140 32//35 33//21
f 84//153 31//133 32//35
f 54//154 51//30 93//92
f 81//127 98//155 39//135
f 54//154 83//126 84//153
f 39//135 90//156 80//130
f 48//157 84//153 85//140
f 79//56 80//130 45//118
f 97//158 45//118 80//130
f 67//52 140//149 56//37
f 140//149 63//50 134//99
f 134//99 62//51 21//54
f 56//37 140//149 134//99
f 54//154 153//86 142//72
f 54//154 149//88 150//84
f 93//92 142//72 141//76
f 103//1 102//10 4//2
f 101//4 100//33 2//5
f 111//7 110//11 8//8
f 102//10 101//4 3//6
f 110//11 109//18 7//12
f 9//9 8//8 15//13
f 16//14 15//13 24//15
f 111//7 38//128 37//17
f 109//18 36//25 35//19
f 33//21 32//35 104//22
f 102//10 30//122 29//24
f 110//11 37//17 36//25
f 34//26 33//21 105//23
f 37//17 44//29 43//28
f 44//29 52//145 51//30
f 103//1 5//3 10//31
f 100//33 114//147 1//34
f 32//35 31//133 115//32
f 70//36 67//52 56//37
f 57//39 55//55 65//40
f 60//42 59//47 71//43
f 72//44 73//46 61//45
f 73//46 70//36 58//38
f 57//39 68//41 71//43
f 64//48 67//52 66//49
f 62//51 63//50 66//49
f 70//36 69//53 66//49
f 65//40 66//49 69//53
f 73//46 72//44 69//53
f 69//53 72//44 71//43
f 21//54 62//51 65//40
f 57//39 59//47 60//42
f 60//42 61//45 58//38
f 55//55 57//39 58//38
f 79//56 78//119 112//57
f 96//59 95//159 88//60
f 112//57 121//93 122//62
f 104//22 117//66 118//63
f 105//23 118//63 119//64
f 118//63 127//67 128//65
f 117//66 131//116 127//67
f 113//58 99//152 74//68
f 116//69 99//152 113//58
f 123//70 116//69 122//62
f 142//72 153//86 156//73
f 154//75 151//89 141//76
f 146//78 158//82 157//79
f 147//81 159//83 158//82
f 147//81 144//74 156//73
f 157//79 154//75 143//77
f 150//84 149//88 152//85
f 148//87 151//89 152//85
f 152//85 155//90 156//73
f 154//75 155//90 152//85
f 155//90 158//82 159//83
f 157//79 158//82 155//90
f 151//89 148//87 92//91
f 148//87 149//88 93//92
f 146//78 145//80 143//77
f 143//77 144//74 146//78
f 142//72 144//74 143//77
f 121//93 17//106 130//71
f 5//3 4//2 11//94
f 109//18 108//20 120//96
f 106//27 119//64 6//97
f 111//7 9//9 121//93
f 108//20 107//98 6//97
f 126//95 21//54 134//99
f 3//6 2//5 124//101
f 7//12 120//96 14//103
f 119//64 128//65 13//105
f 4//2 3//6 125//102
f 9//9 16//14 17//106
f 8//8 7//12 129//104
f 120//96 6//97 13//105
f 11//94 125//102 20//107
f 16//14 25//16 138//109
f 15//13 129//104 137//110
f 14//103 13//105 23//111
f 127//67 22//117 135//113
f 126//95 11//94 133//108
f 17//106 138//109 26//114
f 125//102 124//101 19//115
f 129//104 14//103 136//112
f 128//65 135//113 23//111
f 131//116 140//149 22//117
f 45//118 89//61 78//119
f 76//120 41//125 40//121
f 103//1 76//120 30//122
f 101//4 29//24 75//123
f 77//124 34//26 106//27
f 78//119 38//128 111//7
f 108//20 35//19 77//124
f 93//92 92//91 41//125
f 29//24 82//134 81//127
f 38//128 88//60 44//29
f 28//129 39//135 80//130
f 36//25 43//28 87//131
f 86//132 42//136 34//26
f 83//126 41//125 76//120
f 30//122 40//121 82//134
f 89//61 88//60 38//128
f 75//123 81//127 39//135
f 35//19 87//131 86//132
f 42//136 85//140 33//21
f 40//121 47//142 91//137
f 87//131 50//146 94//138
f 49//139 48//157 85//140
f 27//141 132//151 123//70
f 123//70 130//71 27//141
f 41//125 92//91 47//142
f 53//143 96//59 89//61
f 82//134 91//137 46//144
f 88//60 95//159 52//145
f 43//28 51//30 50//146
f 94//138 49//139 42//136
f 114//147 99//152 116//69
f 115//32 10//31 117//66
f 1//34 116//69 123//70
f 5//3 126//95 12//100
f 2//5 1//34 18//148
f 10//31 12//100 131//116
f 132//151 27//141 26//114
f 138//109 25//16 20//107
f 132//151 26//114 139//150
f 20//107 19//115 138//109
f 139//150 26//114 138//109
f 25//16 24//15 21//54
f 137//110 136//112 140//149
f 23//111 135//113 136//112
f 135//113 22//117 136//112
f 24//15 137//110 134//99
f 19//115 139//150 138//109
f 21//54 133//108 25//16
f 22//117 140//149 136//112
f 134//99 21//54 24//15
f 20//107 25//16 133//108
f 124//101 18//148 139//150
f 12//100 134//99 140//149
f 18//148 123//70 132//151
f 114//147 28//129 74//68
f 31//133 76//120 103//1
f 100//33 75//123 28//129
f 85//140 84//153 32//35
f 84//153 83//126 31//133
f 98//155 46//144 96//59
f 91//137 47//142 95//159
f 47//142 92//91 95//159
f 46//144 91//137 96//59
f 54//154 48//157 50//146
f 91//137 95//159 96//59
f 53//143 97//158 90//156
f 90//156 98//155 53//143
f 48//157 49//139 50//146
f 94//138 50//146 49//139
f 51//30 52//145 93//92
f 96//59 53//143 98//155
f 52//145 92//91 93//92
f 54//154 50//146 51//30
f 92//91 52//145 95//159
f 81//127 46//144 98//155
f 54//154 93//92 83//126
f 39//135 98//155 90//156
f 48//157 54//154 84//153
f 79//56 74//68 80//130
f 97//158 53//143 45//118
f 80//130 90//156 97//158
f 67//52 64//48 140//149
f 140//149 64//48 63//50
f 134//99 63//50 62//51
f 134//99 21//54 55//55
f 55//55 56//37 134//99
f 54//154 150//84 153//86
f 54//154 93//92 149//88
f 141//76 92//91 93//92
f 93//92 54//154 142//72
