# Blender v2.78 (sub 0) OBJ File: 'bug.blend'
# www.blender.org
v -0.016254 0.032167 -0.000741
v -0.016254 0.053831 0.020817
v -0.016254 0.074626 0.049197
v -0.016683 0.078953 0.081919
v -0.022611 0.061486 0.108155
v -0.016254 0.016378 0.245254
v -0.016254 -0.009238 0.163593
v -0.016254 -0.021711 0.097016
v -0.016254 -0.010598 0.065347
v -0.018553 0.061208 0.130297
v -0.032060 0.051889 0.088275
v -0.030165 0.037678 0.116322
v -0.028780 0.023262 0.182966
v -0.028780 0.013124 0.165248
v -0.028780 0.001181 0.097028
v -0.028780 0.007623 0.078668
v -0.028780 0.015056 0.058980
v -0.028780 0.032416 0.040354
v -0.031868 0.016845 0.078405
v -0.034688 0.021076 0.085344
v -0.033964 0.019990 0.099760
v -0.034506 0.024243 0.125569
v -0.034157 0.020966 0.133281
v -0.039046 0.019441 0.097037
v -0.039046 0.022158 0.089293
v -0.039046 0.026100 0.071724
v -0.039046 0.025804 0.060422
v 0.014916 0.032167 -0.000741
v 0.015971 0.073721 0.049197
v 0.018882 0.077762 0.081919
v 0.017164 0.061290 0.130297
v 0.015305 0.057747 0.166881
v 0.014916 0.059187 0.213713
v 0.014916 0.041079 0.242840
v 0.014916 -0.001111 0.214691
v 0.014502 -0.009245 0.163593
v 0.010168 -0.021504 0.097016
v 0.014347 -0.010603 0.065347
v 0.027442 0.032416 0.040354
v 0.030121 0.053498 0.088275
v 0.030277 0.039027 0.103485
v 0.027442 0.037583 0.181567
v 0.024466 0.006991 0.135625
v 0.023238 -0.000317 0.097028
v 0.027442 0.016970 0.037009
v 0.034941 0.029791 0.078405
v 0.035108 0.028085 0.093345
v 0.033834 0.026439 0.125569
v 0.033876 0.025956 0.132691
v 0.032397 0.017650 0.125809
v 0.029475 0.012822 0.113315
v 0.031689 0.013236 0.097037
v 0.035384 0.022870 0.071724
v 0.032269 0.021413 0.114119
v -0.094213 -0.020176 0.070631
v -0.093271 -0.020622 0.148449
v -0.128136 -0.042791 0.070631
v -0.126649 -0.045022 0.148449
v -0.168751 -0.069868 0.094441
v -0.168071 -0.070888 0.104224
v -0.167264 -0.072099 0.120387
v -0.032608 0.017955 0.099760
v -0.031928 0.016935 0.105174
v -0.031409 0.016482 0.114119
v -0.092857 -0.022211 0.070631
v -0.092177 -0.023231 0.099972
v -0.091874 -0.022912 0.148449
v -0.126779 -0.044827 0.070631
v -0.126099 -0.045846 0.099972
v -0.125292 -0.047057 0.148449
v -0.167394 -0.071903 0.094441
v -0.166715 -0.072923 0.104224
v -0.165908 -0.074134 0.120387
v 0.014916 0.013716 -0.029653
v 0.014916 0.053831 0.020817
v 0.021250 0.061711 0.108155
v 0.014916 0.016378 0.245254
v 0.014916 0.002223 0.031387
v 0.014916 0.005525 -0.006511
v 0.027442 0.021719 0.023592
v 0.027337 0.043847 0.052852
v 0.028280 0.054006 0.069305
v 0.028789 0.038046 0.116322
v 0.027414 0.042290 0.137531
v 0.027460 0.046368 0.164681
v 0.027442 0.023262 0.182966
v 0.026418 0.012526 0.165248
v 0.025103 0.006543 0.078668
v 0.026407 0.014398 0.058980
v 0.036121 0.025661 0.066065
v 0.035340 0.031084 0.085344
v 0.032934 0.021304 0.099760
v 0.031946 0.018970 0.105174
v 0.033387 0.021870 0.133281
v 0.033119 0.016847 0.089293
v 0.034414 0.020891 0.080990
v 0.036178 0.023707 0.060422
v 0.034891 0.026997 0.073134
v -0.000146 0.011132 -0.047897
v -0.000669 0.056865 0.009841
v -0.000409 0.080575 0.042307
v 0.001604 0.086417 0.079741
v -0.000497 0.070905 0.109755
v -0.000669 0.062007 0.176937
v -0.000669 0.062993 0.230513
v -0.000669 0.042277 0.263833
v -0.000669 0.014019 0.266595
v -0.000669 -0.005988 0.231632
v -0.000669 -0.015286 0.173176
v -0.000976 -0.029461 0.097013
v -0.000669 -0.016841 0.060783
v -0.000669 -0.002174 0.021933
v -0.000669 0.001603 -0.021422
v -0.000669 0.032082 -0.014822
v -0.000693 0.067876 0.135086
v -0.015679 0.013566 -0.029653
v -0.016801 0.057512 0.166881
v -0.016254 0.059187 0.213713
v -0.016254 0.041079 0.242840
v -0.016254 -0.001111 0.214691
v -0.016254 0.002223 0.031387
v -0.016254 0.005525 -0.006511
v -0.028780 0.021719 0.023592
v -0.028780 0.044975 0.052852
v -0.028780 0.057031 0.069305
v -0.031887 0.037597 0.103485
v -0.028801 0.046142 0.164681
v -0.028780 0.037583 0.181567
v -0.028780 0.008412 0.135625
v -0.028780 0.016970 0.037009
v -0.028747 0.041335 0.137531
v -0.039046 0.028103 0.066065
v -0.035539 0.022353 0.093345
v -0.033284 0.018970 0.105174
v -0.034439 0.024168 0.132691
v -0.033577 0.017446 0.125809
v -0.031579 0.013721 0.113315
v -0.039046 0.025293 0.080990
v -0.039046 0.032615 0.073134
v -0.033268 0.020318 0.114119
v 0.092875 -0.020176 0.070631
v 0.091389 -0.022406 0.148449
v 0.126798 -0.042791 0.070631
v 0.125311 -0.045022 0.148449
v 0.167413 -0.069868 0.094441
v 0.166733 -0.070888 0.104224
v 0.165926 -0.072099 0.120387
v 0.031270 0.017955 0.099760
v 0.030590 0.016935 0.105174
v 0.030369 0.017266 0.114119
v 0.091519 -0.022211 0.070631
v 0.090839 -0.023231 0.099972
v 0.090032 -0.024442 0.148449
v 0.125441 -0.044827 0.070631
v 0.124761 -0.045846 0.099972
v 0.123954 -0.047057 0.148449
v 0.166056 -0.071903 0.094441
v 0.165376 -0.072923 0.104224
v 0.164569 -0.074134 0.120387
vn -0.0019 0.9520 0.3059
vn -0.6049 0.7853 0.1320
vn -0.7454 0.6244 0.2331
vn 0.0066 0.9123 -0.4094
vn -0.7403 0.5123 -0.4353
vn -0.6794 0.6834 -0.2671
vn 0.0132 -0.9437 -0.3305
vn -0.6714 -0.7388 -0.0579
vn -0.6775 -0.6911 -0.2517
vn 0.0460 0.9903 0.1308
vn 0.0624 -0.9950 -0.0778
vn -0.6861 -0.7168 0.1244
vn -0.8830 -0.4687 -0.0221
vn -0.8629 -0.4748 -0.1729
vn -0.9450 0.2416 0.2205
vn -0.9549 0.2766 0.1080
vn 0.7035 -0.7089 -0.0502
vn 0.0043 -0.9862 0.1653
vn 0.7465 -0.6361 0.1950
vn 0.0000 -0.9180 0.3965
vn 0.6644 0.7332 0.1446
vn -0.0042 0.9996 0.0267
vn 0.0000 0.9275 0.3739
vn 0.7071 0.6480 -0.2829
vn 0.6992 -0.7075 0.1027
vn 0.8535 0.3252 0.4072
vn 0.0000 0.4539 0.8910
vn 0.8512 -0.5229 0.0443
vn 0.8551 -0.5184 -0.0055
vn 0.9043 -0.4249 0.0414
vn -0.6704 0.7348 0.1030
vn -0.0032 0.9926 0.1215
vn -0.0005 0.7482 -0.6634
vn -0.7346 0.5240 -0.4309
vn 0.5339 0.8450 0.0283
vn -0.5239 0.4162 0.7432
vn 0.5067 -0.4510 0.7347
vn -0.2364 0.6365 0.7342
vn -0.2580 0.6395 -0.7241
vn 0.2159 -0.6322 -0.7441
vn -0.5148 0.4649 -0.7202
vn -0.9801 0.1909 0.0541
vn -0.2523 -0.8525 -0.4577
vn -0.1975 -0.9774 -0.0750
vn -0.9006 0.0865 0.4258
vn -0.2177 -0.9026 0.3712
vn -0.9081 0.1790 -0.3786
vn 0.9015 -0.1904 0.3886
vn 0.5600 -0.8280 -0.0285
vn 0.9713 -0.2101 -0.1115
vn 0.8579 -0.0707 -0.5089
vn 0.4814 -0.4634 -0.7440
vn 0.2143 -0.6569 0.7229
vn 0.5524 -0.8325 -0.0416
vn 0.6533 -0.7422 -0.1493
vn 0.0000 -0.9834 -0.1814
vn -0.0033 -0.9641 -0.2654
vn 0.9472 -0.3175 -0.0435
vn 0.8593 -0.4979 -0.1171
vn 0.8043 -0.5865 -0.0958
vn -0.6600 -0.7350 -0.1552
vn -0.6645 0.7332 0.1440
vn -0.8535 0.3252 0.4072
vn -0.9769 0.1513 0.1509
vn -0.5426 0.8396 0.0249
vn -0.8777 0.4793 -0.0010
vn 0.8366 -0.0424 -0.5462
vn -0.8301 -0.0471 -0.5557
vn -0.9718 0.0001 -0.2359
vn -0.8128 -0.5719 -0.1101
vn 0.2248 0.6290 0.7441
vn -0.2067 -0.6593 0.7229
vn 0.5173 0.4252 0.7427
vn -0.2159 -0.6322 -0.7441
vn 0.2579 0.6445 -0.7198
vn 0.5149 0.4649 -0.7202
vn 0.9801 0.1909 0.0541
vn 0.2523 -0.8525 -0.4577
vn 0.9081 0.1790 -0.3786
vn 0.9006 0.0865 0.4259
vn 0.1975 -0.9774 -0.0750
vn 0.2177 -0.9026 0.3712
vn -0.8967 -0.1749 0.4065
vn -0.5594 -0.8281 -0.0373
vn -0.5122 -0.4670 0.7208
vn -0.8573 -0.1174 -0.5012
vn -0.9691 -0.2314 -0.0849
vn -0.4814 -0.4634 -0.7440
vn -0.5524 -0.8325 -0.0416
vn 0.9643 0.2479 0.0927
vn 0.7842 0.6070 0.1287
vn -0.6299 -0.7592 -0.1639
vn -0.9523 0.2999 0.0552
vn -0.9673 0.1895 0.1687
vn -0.7458 -0.6362 0.1975
vn -0.8644 -0.2874 0.4125
vn 0.0000 -0.3929 0.9196
vn -0.5330 0.8176 0.2178
vn -0.9630 0.2584 0.0764
vn -0.9333 0.3035 -0.1915
vn -0.9391 0.3220 -0.1201
vn -0.9311 -0.3498 0.1032
vn -0.8937 -0.4433 0.0695
vn -0.9802 -0.1201 0.1575
vn -0.8204 -0.5596 -0.1175
vn -0.9622 -0.2306 -0.1448
vn -0.9812 -0.1876 0.0449
vn -0.5317 0.7985 -0.2822
vn -0.9546 -0.2882 0.0758
vn -0.9817 -0.1819 0.0569
vn -0.9538 -0.3005 -0.0067
vn -0.9978 0.0563 0.0340
vn -0.9819 0.1708 -0.0815
vn -0.9391 -0.3427 -0.0244
vn -0.3475 0.9354 0.0646
vn -0.9044 0.4257 -0.0267
vn -0.9777 0.1740 -0.1174
vn 0.8142 -0.5708 -0.1060
vn 0.6318 -0.7588 -0.1581
vn 0.7422 0.6211 0.2517
vn 0.9391 0.3326 0.0867
vn 0.6719 0.7308 0.1205
vn 0.7421 0.5093 -0.4357
vn 0.8644 -0.2874 0.4125
vn 0.9552 0.2170 0.2009
vn 0.9606 0.2695 0.0670
vn 0.9393 0.2632 -0.2203
vn 0.6896 -0.6952 -0.2030
vn 0.7315 0.5316 -0.4270
vn 0.9736 0.0016 -0.2284
vn 0.9145 -0.3945 0.0894
vn 0.9783 -0.1384 0.1538
vn 0.6651 0.7397 0.1025
vn 0.9376 0.3137 -0.1498
vn 0.9174 0.3215 -0.2346
vn 0.9758 0.1524 0.1569
vn 0.9952 0.0972 -0.0053
vn 0.9718 -0.2269 0.0643
vn 0.9970 0.0662 0.0390
vn 0.8716 0.4900 0.0115
vn -0.9810 -0.0873 -0.1730
vn 0.9849 0.0130 0.1726
vn 0.9405 -0.3370 0.0442
vn 0.9920 0.0993 -0.0771
vn 0.9196 -0.3911 0.0357
vn 0.9264 -0.3765 -0.0060
vn -0.0042 0.8022 -0.5970
vn -0.8927 0.3546 -0.2781
vn -0.5202 0.5266 0.6723
vn -0.9136 0.3878 0.1222
vn -0.9722 0.2217 -0.0749
vn 0.0106 -0.1166 -0.9931
vn 0.8860 0.4624 -0.0331
vn 0.9843 0.1765 -0.0082
vn 0.9386 0.3414 0.0485
vn 0.9386 0.3450 0.0053
vn 0.9551 0.2367 -0.1780
vn 0.9843 -0.1006 -0.1450
vn 0.9270 -0.3746 -0.0152
s 1
f 103//1 4//2 5//3
f 101//4 2//5 3//6
f 111//7 8//8 9//9
f 102//10 3//6 4//2
f 110//11 7//12 8//8
f 9//9 15//13 16//14
f 16//14 24//15 25//16
f 111//7 37//17 110//11
f 109//18 35//19 108//20
f 33//21 104//22 105//23
f 102//10 29//24 101//4
f 110//11 36//25 109//18
f 34//26 105//23 106//27
f 37//17 43//28 36//25
f 44//29 51//30 43//28
f 103//1 10//31 115//32
f 100//33 1//34 2//5
f 32//35 115//32 104//22
f 58//36 67//37 56//38
f 55//39 68//40 57//41
f 60//42 71//43 72//44
f 72//44 61//45 60//42
f 73//46 58//36 61//45
f 57//41 71//43 59//47
f 64//48 66//49 63//50
f 62//51 66//49 65//52
f 70//53 66//49 67//37
f 65//52 69//54 68//40
f 73//46 69//54 70//53
f 69//54 71//43 68//40
f 55//39 62//51 65//52
f 60//42 58//36 57//41
f 55//39 58//36 56//38
f 79//55 112//56 113//57
f 96//58 88//59 89//60
f 112//56 122//61 113//57
f 104//22 118//62 105//23
f 105//23 119//63 106//27
f 118//62 128//64 119//63
f 117//65 127//66 118//62
f 113//57 74//67 79//55
f 116//68 113//57 122//61
f 123//69 122//61 130//70
f 142//71 156//72 144//73
f 154//74 141//75 143//76
f 146//77 157//78 145//79
f 147//80 158//81 146//77
f 144//73 159//82 147//80
f 157//78 143//76 145//79
f 150//83 152//84 153//85
f 148//86 152//84 149//87
f 152//84 156//72 153//85
f 154//74 152//84 151//88
f 155//89 159//82 156//72
f 157//78 155//89 154//74
f 141//75 148//86 92//90
f 148//86 93//91 92//90
f 144//73 147//80 146//77
f 144//73 141//75 142//71
f 121//92 130//70 122//61
f 5//3 11//93 126//94
f 109//18 120//95 7//12
f 106//27 6//96 107//97
f 111//7 121//92 112//56
f 108//20 6//96 120//95
f 126//94 134//98 12//99
f 3//6 124//100 125//101
f 7//12 14//102 129//103
f 119//63 13//104 6//96
f 4//2 125//101 11//93
f 9//9 17//105 121//92
f 8//8 129//103 15//13
f 120//95 13//104 14//102
f 11//93 20//106 133//107
f 16//14 138//108 17//105
f 15//13 137//109 24//15
f 14//102 23//110 136//111
f 127//66 135//112 128//64
f 126//94 133//107 21//113
f 17//105 26//114 130//70
f 125//101 19//115 20//106
f 129//103 136//111 137//109
f 13//104 135//112 23//110
f 131//116 22//117 127//66
f 45//118 78//119 79//55
f 76//120 40//121 30//122
f 103//1 30//122 102//10
f 101//4 75//123 100//33
f 77//124 106//27 107//97
f 78//119 111//7 112//56
f 108//20 77//124 107//97
f 93//91 41//125 83//126
f 29//24 81//127 75//123
f 38//128 44//29 37//17
f 28//129 80//130 74//67
f 36//25 87//131 35//19
f 86//132 34//26 77//124
f 83//126 76//120 31//133
f 30//122 82//134 29//24
f 89//60 38//128 78//119
f 75//123 39//135 28//129
f 35//19 86//132 77//124
f 42//136 33//21 34//26
f 40//121 91//137 82//134
f 87//131 94//138 86//132
f 49//139 85//140 42//136
f 27//141 130//70 26//114
f 41//125 47//142 40//121
f 53//143 89//60 45//118
f 82//134 46//144 81//127
f 88//59 52//145 44//29
f 43//28 50//146 87//131
f 86//132 49//139 42//136
f 114//147 116//68 1//34
f 115//32 117//65 104//22
f 1//34 123//69 18//148
f 5//3 12//99 10//31
f 2//5 18//148 124//100
f 10//31 131//116 117//65
f 138//108 134//98 19//115
f 124//100 139//149 19//115
f 12//99 140//150 131//116
f 18//148 132//151 139//149
f 114//147 74//67 99//152
f 31//133 103//1 115//32
f 100//33 28//129 114//147
f 85//140 32//35 33//21
f 84//153 31//133 32//35
f 93//91 51//30 52//145
f 81//127 98//154 39//135
f 54//155 83//126 84//153
f 39//135 90//156 80//130
f 48//157 84//153 85//140
f 79//55 80//130 45//118
f 97//158 45//118 80//130
f 56//38 64//48 140//150
f 64//48 134//98 140//150
f 134//98 62//51 21//113
f 56//38 140//150 134//98
f 142//71 150//83 153//85
f 93//91 150//83 54//155
f 93//91 142//71 141//75
f 103//1 102//10 4//2
f 101//4 100//33 2//5
f 111//7 110//11 8//8
f 102//10 101//4 3//6
f 110//11 109//18 7//12
f 9//9 8//8 15//13
f 16//14 15//13 24//15
f 111//7 38//128 37//17
f 109//18 36//25 35//19
f 33//21 32//35 104//22
f 102//10 30//122 29//24
f 110//11 37//17 36//25
f 34//26 33//21 105//23
f 37//17 44//29 43//28
f 44//29 52//145 51//30
f 103//1 5//3 10//31
f 100//33 114//147 1//34
f 32//35 31//133 115//32
f 58//36 70//53 67//37
f 55//39 65//52 68//40
f 60//42 59//47 71//43
f 72//44 73//46 61//45
f 73//46 70//53 58//36
f 57//41 68//40 71//43
f 64//48 67//37 66//49
f 62//51 63//50 66//49
f 70//53 69//54 66//49
f 65//52 66//49 69//54
f 73//46 72//44 69//54
f 69//54 72//44 71//43
f 55//39 21//113 62//51
f 57//41 59//47 60//42
f 60//42 61//45 58//36
f 55//39 57//41 58//36
f 79//55 78//119 112//56
f 96//58 95//159 88//59
f 112//56 121//92 122//61
f 104//22 117//65 118//62
f 105//23 118//62 119//63
f 118//62 127//66 128//64
f 117//65 131//116 127//66
f 113//57 99//152 74//67
f 116//68 99//152 113//57
f 123//69 116//68 122//61
f 142//71 153//85 156//72
f 154//74 151//88 141//75
f 146//77 158//81 157//78
f 147//80 159//82 158//81
f 144//73 156//72 159//82
f 157//78 154//74 143//76
f 150//83 149//87 152//84
f 148//86 151//88 152//84
f 152//84 155//89 156//72
f 154//74 155//89 152//84
f 155//89 158//81 159//82
f 157//78 158//81 155//89
f 141//75 151//88 148//86
f 148//86 149//87 93//91
f 146//77 145//79 143//76
f 143//76 144//73 146//77
f 144//73 143//76 141//75
f 121//92 17//105 130//70
f 5//3 4//2 11//93
f 109//18 108//20 120//95
f 106//27 119//63 6//96
f 111//7 9//9 121//92
f 108//20 107//97 6//96
f 126//94 21//113 134//98
f 3//6 2//5 124//100
f 7//12 120//95 14//102
f 119//63 128//64 13//104
f 4//2 3//6 125//101
f 9//9 16//14 17//105
f 8//8 7//12 129//103
f 120//95 6//96 13//104
f 11//93 125//101 20//106
f 16//14 25//16 138//108
f 15//13 129//103 137//109
f 14//102 13//104 23//110
f 127//66 22//117 135//112
f 126//94 11//93 133//107
f 17//105 138//108 26//114
f 125//101 124//100 19//115
f 129//103 14//102 136//111
f 13//104 128//64 135//112
f 131//116 140//150 22//117
f 45//118 89//60 78//119
f 76//120 41//125 40//121
f 103//1 76//120 30//122
f 101//4 29//24 75//123
f 77//124 34//26 106//27
f 78//119 38//128 111//7
f 108//20 35//19 77//124
f 93//91 92//90 41//125
f 29//24 82//134 81//127
f 38//128 88//59 44//29
f 28//129 39//135 80//130
f 36//25 43//28 87//131
f 86//132 42//136 34//26
f 83//126 41//125 76//120
f 30//122 40//121 82//134
f 89//60 88//59 38//128
f 75//123 81//127 39//135
f 35//19 87//131 86//132
f 42//136 85//140 33//21
f 40//121 47//142 91//137
f 87//131 50//146 94//138
f 49//139 48//157 85//140
f 27//141 132//151 123//69
f 123//69 130//70 27//141
f 41//125 92//90 47//142
f 53//143 96//58 89//60
f 82//134 91//137 46//144
f 88//59 95//159 52//145
f 43//28 51//30 50//146
f 86//132 94//138 49//139
f 114//147 99//152 116//68
f 115//32 10//31 117//65
f 1//34 116//68 123//69
f 5//3 126//94 12//99
f 2//5 1//34 18//148
f 10//31 12//99 131//116
f 132//151 27//141 26//114
f 138//108 25//16 134//98
f 132//151 26//114 138//108
f 19//115 139//149 132//151
f 133//107 20//106 19//115
f 21//113 133//107 19//115
f 19//115 132//151 138//108
f 25//16 24//15 134//98
f 137//109 136//111 140//150
f 23//110 135//112 136//111
f 135//112 22//117 136//111
f 134//98 21//113 19//115
f 22//117 140//150 136//111
f 137//109 140//150 134//98
f 24//15 137//109 134//98
f 124//100 18//148 139//149
f 12//99 134//98 140//150
f 18//148 123//69 132//151
f 114//147 28//129 74//67
f 31//133 76//120 103//1
f 100//33 75//123 28//129
f 85//140 84//153 32//35
f 84//153 83//126 31//133
f 97//158 90//156 53//143
f 98//154 46//144 96//58
f 91//137 47//142 96//58
f 46//144 91//137 96//58
f 53//143 90//156 98//154
f 52//145 92//90 93//91
f 96//58 53//143 98//154
f 47//142 95//159 96//58
f 54//155 48//157 50//146
f 47//142 92//90 95//159
f 93//91 54//155 51//30
f 49//139 94//138 48//157
f 50//146 51//30 54//155
f 95//159 92//90 52//145
f 48//157 94//138 50//146
f 81//127 46//144 98//154
f 54//155 93//91 83//126
f 39//135 98//154 90//156
f 48//157 54//155 84//153
f 79//55 74//67 80//130
f 97//158 53//143 45//118
f 80//130 90//156 97//158
f 56//38 67//37 64//48
f 64//48 63//50 134//98
f 134//98 63//50 62//51
f 134//98 21//113 55//39
f 55//39 56//38 134//98
f 142//71 54//155 150//83
f 93//91 149//87 150//83
f 141//75 92//90 93//91
f 93//91 54//155 142//71
